<?xml version="1.0" encoding="utf-8"?>
<!-- Generator: Adobe Illustrator 26.0.0, SVG Export Plug-In . SVG Version: 6.00 Build 0)  -->
<svg version="1.1"
	 id="svg2" xmlns:cc="http://creativecommons.org/ns#" xmlns:dc="http://purl.org/dc/elements/1.1/" xmlns:inkscape="http://www.inkscape.org/namespaces/inkscape" xmlns:rdf="http://www.w3.org/1999/02/22-rdf-syntax-ns#" xmlns:sodipodi="http://sodipodi.sourceforge.net/DTD/sodipodi-0.dtd" xmlns:svg="http://www.w3.org/2000/svg"
	 xmlns="http://www.w3.org/2000/svg" xmlns:xlink="http://www.w3.org/1999/xlink" x="0px" y="0px" viewBox="0 0 219 219"
	 style="enable-background:new 0 0 219 219;" xml:space="preserve">
<style type="text/css">
	.st0{fill:#000080;}
</style>
<sodipodi:namedview  bordercolor="#666666" borderopacity="1.0" fit-margin-bottom="0" fit-margin-left="0" fit-margin-right="0" fit-margin-top="0" id="base" inkscape:current-layer="layer1-5" inkscape:cx="141.37189" inkscape:cy="50.724261" inkscape:document-units="px" inkscape:pageopacity="0.0" inkscape:pageshadow="2" inkscape:window-height="749" inkscape:window-maximized="1" inkscape:window-width="1280" inkscape:window-x="0" inkscape:window-y="26" inkscape:zoom="1.708118" pagecolor="#ffffff" showgrid="false">
	</sodipodi:namedview>
<g id="layer1" transform="translate(-124.4748,-271.90983)" inkscape:groupmode="layer" inkscape:label="Layer 1">
	<g id="layer1-5" transform="translate(-118.04179,-55.959568)" inkscape:label="Layer 1">
		<path id="path3265" inkscape:connector-curvature="0" class="st0" d="M351.4,341.9c-52.7,0-95.4,42.8-95.4,95.5
			s42.7,95.4,95.4,95.4s95.5-42.7,95.5-95.4S404.1,341.9,351.4,341.9z M350.8,393.5c24.2,0,43.8,19.6,43.8,43.8
			c0,21.8-15.9,39.8-36.8,43.2v12.5h16.3v14.6h-16.3v15.3h-14.6v-15.3h-16.3v-14.6h16.3v-12.6c-20.5-3.6-36.2-21.5-36.2-43.1
			C307.1,413,326.6,393.5,350.8,393.5z M351.4,409.8c-15.2,0-27.5,12.4-27.5,27.6s12.3,27.5,27.5,27.5s27.6-12.3,27.6-27.5
			S366.6,409.8,351.4,409.8z"/>
	</g>
</g>
</svg>
