<?xml version="1.0" encoding="utf-8"?>
<!-- Generator: Adobe Illustrator 26.0.0, SVG Export Plug-In . SVG Version: 6.00 Build 0)  -->
<svg version="1.1" id="Camada_1" xmlns="http://www.w3.org/2000/svg" xmlns:xlink="http://www.w3.org/1999/xlink" x="0px" y="0px"
	 viewBox="0 0 700 700" style="enable-background:new 0 0 700 700;" xml:space="preserve">
<path d="M616.4,152.8L340.9,42.3c-1.1-0.4-2.2-0.4-3.3,0L62,152.8c-1.7,0.7-2.8,2.3-2.8,4.1c0,1.8,1.1,3.4,2.8,4.1l149.1,59.8
	c-1.3,13.1-3.6,26-6.9,38.3c-3.6,13.3-8.6,26.4-14.8,38.9c-0.2,0.3-0.3,0.6-0.3,1l0,0c-2.8,12-4.2,24.4-4.2,36.8
	c0,33.9,10.3,66.1,29.8,93.3l-36.2,37l-28-28.7c-5.5-5.6-12.8-8.7-20.6-8.8h0c-7.8,0-15.1,3.1-20.7,8.8c-5.5,5.6-8.5,13.1-8.5,21
	c0,7.9,3,15.4,8.5,21l28.2,28.8l-42,42.9c-11.3,11.6-11.3,30.4,0,42c5.5,5.6,12.9,8.7,20.7,8.7c7.8,0,15.1-3.1,20.6-8.8l41.8-42.8
	l28,28.7c5.5,5.6,12.8,8.7,20.6,8.7h0c7.8,0,15.1-3.1,20.7-8.8c5.5-5.6,8.5-13.1,8.5-21s-3-15.4-8.5-21l-28.1-28.8l37.7-38.6
	c24.5,15.7,52.8,24,81.9,24c28.9,0,56.9-8.2,81.3-23.7l69.8,71.5h-15.1c-16.3,0-29.6,13.5-29.6,30.2c0,16.6,13.3,30.2,29.6,30.2H562
	c16.1,0,29.2-13.4,29.2-29.8v-88.8c0-16.6-13.3-30.2-29.6-30.2c-7.9,0-15.4,3.2-21,8.9c-5.6,5.7-8.6,13.3-8.6,21.3v15.3L463.9,429
	c19.4-27.2,29.7-59.3,29.7-93.2c0-12.4-1.4-24.8-4.2-36.8l0,0c-0.1-0.3-0.2-0.6-0.3-1c-6.2-12.5-11.1-25.6-14.8-38.9
	c-3.4-12.3-5.7-25.1-6.9-38.3l52.6-21.1c1.9,2.1,2.9,4.9,2.9,7.8v79.1c-7.5,4.4-12.2,12.2-12.2,20.7c0,5.8,2.1,11.2,6,15.6
	c-4.8,5.1-7.6,12-7.6,19.3v53.7c0,2.5,2,4.4,4.4,4.4h45.8c2.5,0,4.4-2,4.4-4.4v-53.7c0-7.2-2.8-14.1-7.6-19.3
	c3.8-4.3,5.9-9.8,5.9-15.6c0-8.4-4.7-16.3-12.2-20.7l0-79.1c0-6.4-1.5-12.5-4.4-18.1l70.8-28.4c1.7-0.7,2.8-2.3,2.8-4.1
	S618.1,153.5,616.4,152.8L616.4,152.8z M443.1,335.4c0,0.1,0,0.3,0,0.4c0,58.7-46.6,106.5-104,106.5s-104-47.8-104-106.5
	c0-0.1,0-0.3,0-0.4c23.7,12.5,59.3,25.9,103.9,25.9C383.8,361.3,419.5,347.9,443.1,335.4L443.1,335.4z M465.7,261.5
	c3.5,12.8,8.2,25.5,14,37.6c-4.6,4.3-16.4,14.7-34.5,25.1c-22.5,12.9-59.1,28.2-105.9,28.2s-83.5-15.4-105.9-28.2
	c-18.1-10.4-29.9-20.7-34.5-25.1c5.8-12.2,10.5-24.8,14-37.6c3.3-12,5.6-24.4,7-37.2l117.8,47.3c0.5,0.2,1.1,0.3,1.7,0.3
	s1.1-0.1,1.7-0.3l117.8-47.3C460.1,237,462.4,249.5,465.7,261.5L465.7,261.5z M517.1,187.8L338,135.4c-1.2-0.4-2.2-1.2-2.8-2.3
	c-0.6-1.1-0.8-2.5-0.4-3.8c0.7-2.5,3.2-4.1,5.7-3.3l179.2,52.4c6.3,1.9,11.9,5.9,15.8,11.5c3.7,5.2,5.6,11.3,5.6,17.7v75.8
	c-1.5-0.3-3.1-0.4-4.7-0.4c-1.6,0-3.1,0.1-4.7,0.4l0-75.8c0-6.5-3.1-12.6-8.2-16.5C521.7,189.6,519.5,188.5,517.1,187.8L517.1,187.8
	z M554.9,391.4h-16.7v-32c0-2.5-2-4.4-4.4-4.4c-2.5,0-4.4,2-4.4,4.4v32h-11.3v-49.3c0-5.2,2.1-10.2,5.7-13.7
	c3.9,2.1,8.3,3.2,12.8,3.2c4.5,0,8.9-1.1,12.8-3.2c3.6,3.6,5.7,8.5,5.7,13.7L554.9,391.4z"/>
</svg>
