<?xml version="1.0" encoding="utf-8"?>
<!-- Generator: Adobe Illustrator 26.0.0, SVG Export Plug-In . SVG Version: 6.00 Build 0)  -->
<svg version="1.1" id="Camada_1" xmlns="http://www.w3.org/2000/svg" xmlns:xlink="http://www.w3.org/1999/xlink" x="0px" y="0px"
	 viewBox="0 0 700 700" style="enable-background:new 0 0 700 700;" xml:space="preserve">
<g>
	<path d="M414.5,405.6c-1.8-1.8-4.5-1.8-6.2,0l-40.6,40.7h26.2v83.1c0,2.4,2,4.4,4.4,4.4h26.2c2.4,0,4.4-2,4.4-4.4v-83.1h26.2
		L414.5,405.6z"/>
	<path d="M542.7,490h-26.2v-87.5h-35V490h-26.2l43.8,43.8L542.7,490z"/>
	<path d="M542.7,363.3V131.2c0-24.2-19.6-43.8-43.7-43.8H166.4c-24.2,0-43.8,19.6-43.8,43.8v437.5c0,24.2,19.6,43.8,43.8,43.8h166.3
		c21.5,0.1,42.8-4.6,62.2-13.7c69.8,33.2,153.3,3.7,186.6-66.1C609.5,474.1,593.4,403.9,542.7,363.3L542.7,363.3z M201.4,463.7
		V332.4c13.5,25.4,34,46.3,59.2,60.3l8.5-15.3c-41.8-23.2-67.6-67.2-67.7-114.8v-26.2c0-72.5,58.7-131.2,131.3-131.2
		s131.2,58.7,131.2,131.2v26.2c0,24.9-7.1,49.4-20.6,70.5c-19.2,1.6-38,7.2-54.9,16.4l-7.5-2c51.2-26.2,71.5-88.9,45.3-140.2
		c-13.3-26-36.9-45.2-65-52.9l-4.6,16.8c46.2,12.7,73.2,60.5,60.5,106.5c-8.6,31.3-34.1,55.1-66,61.8l-24.9-6.7
		c-4.7-1.2-9.4,1.5-10.7,6.1c-0.1,0.2-0.1,0.4-0.1,0.8c-40.7-7.9-70.2-43.5-70.1-85.1v-1.4c0.1-41.2,29.2-76.8,69.7-85l11.7-2.3
		c15.3-3.1,25.3-17.9,22.2-33.4c-1.3-6.8-5.2-12.9-10.8-17.1l-10.5,14c4.8,3.6,5.8,10.4,2.2,15.1c-1.6,2.1-3.9,3.6-6.6,4.2
		l-11.7,2.3c-48.7,9.8-83.6,52.5-83.7,102.2v1.4c0,52.7,39.4,97.1,91.7,103.4l9.5,35.9c-31.2,0.7-61.4,11.3-86.2,30.2
		c-17,12.9-30.8,29.3-41,48C201.6,469.3,201.4,466.6,201.4,463.7L201.4,463.7z M332.7,595c-57.3-0.1-108-37.2-125.2-91.9
		c8.2-25.9,24.2-48.7,45.8-65.2c21.9-16.7,48.5-26,75.9-26.7c-6.1,12.7-10.4,26.2-12.5,40.2l-4.8-12c-31.6,12.8-57.9,36.1-74.4,65.8
		l15.3,8.5c14.2-25.5,36.4-45.6,63.2-57.1c-5.8,51.3,17.2,101.7,59.7,130.9C362,592.6,347.4,595,332.7,595L332.7,595z M455.2,595
		c-67.7,0-122.5-54.9-122.5-122.6c0-21.4,5.7-42.5,16.3-61c1.2-2,1.4-4.4,0.9-6.7l-13.6-51.2l51.2,13.6c2.2,0.5,4.6,0.3,6.7-0.9
		c58.6-33.8,133.5-13.6,167.3,45.1s13.6,133.6-45.1,167.3C497.7,589.3,476.6,595,455.2,595L455.2,595z"/>
	<path d="M280.2,218.7h26.2v17.5h-26.2V218.7z"/>
	<path d="M358.9,218.7h26.2v17.5h-26.2V218.7z"/>
	<path d="M332.7,297.5c-9.6,0-17.5-7.9-17.5-17.5h-17.5c0,19.4,15.6,35,35,35s35-15.6,35-35h-17.5
		C350.2,289.6,342.3,297.5,332.7,297.5z"/>
</g>
</svg>
