<?xml version="1.0" encoding="utf-8"?>
<!-- Generator: Adobe Illustrator 26.0.0, SVG Export Plug-In . SVG Version: 6.00 Build 0)  -->
<svg version="1.1" id="Camada_1" xmlns="http://www.w3.org/2000/svg" xmlns:xlink="http://www.w3.org/1999/xlink" x="0px" y="0px"
	 viewBox="0 0 700 700" style="enable-background:new 0 0 700 700;" xml:space="preserve">
<g>
	<path d="M211,141.8c0,29.3-23.7,53-53,53c-29.3,0-53-23.7-53-53s23.7-53,53-53S211,112.6,211,141.8"/>
	<path d="M285.4,326.4c4.9,0,9.8-1.9,13.5-5.6l55.1-55.5c7.4-7.4,7.5-19.5,0-26.9c-7.4-7.4-19.5-7.4-26.9,0l-41.7,41.1
		c0,0-25.4-22.2-51.2-48.1c-11.2-11.2-24.7-20.7-43.2-20.7h-71.1c-17.9,0-36.7,17.1-36.7,38.2v132.2h140.6V277.5l45.8,43.3
		C273.3,324.5,280.5,326.4,285.4,326.4L285.4,326.4z"/>
	<path d="M246.4,75.1v139l17,17.9l12.9-12.8V109.2h319.5v242.1H246.4v29.8h379.1v-306L246.4,75.1z"/>
	<path d="M159.8,505.4c-25.7,0-46.5-20.8-46.5-46.4c0-25.7,20.8-46.5,46.5-46.5c25.7,0,46.5,20.8,46.5,46.5
		C206.2,484.6,185.5,505.4,159.8,505.4"/>
	<path d="M75.3,607.5v-36.8c0-29.6,24.3-53.7,54-53.7h57.9c29.7,0,56.1,24.1,56.1,53.7v36.8H75.3z"/>
	<path d="M350.9,505.4c-25.7,0-46.5-20.8-46.5-46.4c0-25.7,20.8-46.5,46.5-46.5c25.7,0,46.5,20.8,46.5,46.5
		C397.3,484.6,376.5,505.4,350.9,505.4"/>
	<path d="M266.4,607.5v-36.8c0-29.6,24.3-53.7,54-53.7h57.9c29.7,0,56.1,24.1,56.1,53.7v36.8H266.4z"/>
	<path d="M542,505.4c-25.7,0-46.5-20.8-46.5-46.4c0-25.7,20.8-46.5,46.5-46.5c25.7,0,46.5,20.8,46.5,46.5
		C588.4,484.6,567.6,505.4,542,505.4"/>
	<path d="M457.5,607.5v-36.8c0-29.6,24.3-53.7,54-53.7h57.9c29.7,0,56.1,24.1,56.1,53.7v36.8H457.5z"/>
	<path d="M563.1,153.8c-16.9-14-36-1.3-49.9,8c-5.7,3.8-11,7.4-15.3,8.8c-5.5,1.9-13.1-0.7-20.6-3.4c-3.6-16.9-20.8-29.7-41.4-29.7
		c-20.7,0-37.9,12.9-41.5,29.9c-7.4,2.6-14.9,5.1-20.3,3.2c-4.3-1.5-9.7-5.1-15.3-8.8c-13.9-9.3-32.9-22-49.8-8
		c-7.7,6.4-10.5,15.7-7.6,25.4c4.2,14.1,19.4,27.3,34.5,30.9c2.5,5.9,10.9,10.3,21,10.3c9.3,0,17.2-3.7,20.3-8.8
		c5.2-0.6,12-2.2,17-6.6c3.5-3.1,5.7-6.5,7.1-9.6c5.9,9.1,14.1,20.7,12.2,30c-2.5,13-4.7,14.4-4.9,23.8
		c-0.3,18.9,10.5,58.7,14.6,72.9h9.1c-0.6-3.4-3.5-20.7-5.4-34.9c-2.5-18.8-2.6-32.5-2.6-32.5s4.3,6,7.7,5.2
		c2.6-0.7,3.7-16.5,4.1-23.1c0.4,6.6,1.5,22.5,4.1,23.1c3.4,0.9,7.7-5.2,7.7-5.2s0,13.6-2.6,32.5c-1.9,14.2-4.8,31.5-5.4,34.9h8.6
		c4.1-14.2,14.9-54,14.6-72.9c-0.2-9.3-2.3-10.8-4.9-23.8c-1.8-9.2,6.1-20.6,12-29.7c1.4,3.3,3.7,7.2,7.6,10.8
		c5.4,4.9,13,6.3,18.3,6.8c3.7,4.2,10.8,7.1,19,7.1c10.1,0,18.6-4.4,21-10.3c15.1-3.6,30.3-16.8,34.5-30.9
		C573.6,169.4,570.8,160.2,563.1,153.8L563.1,153.8z M389.2,199.5c-3,2.7-7.3,4-11,4.5c-1.9-6.4-10.8-11.2-21.4-11.2
		c-6.1,0-11.6,1.6-15.5,4.1c-10.6-1.4-23.6-12-26.5-21.7c-1.3-4.4-0.3-7.8,3.1-10.6c8.2-6.8,18.4-0.9,33.1,8.9
		c6.5,4.3,12.5,8.4,18.6,10.5c8.4,2.9,17.2,0.8,25.3-1.8c0.3,1.2,0.7,2.5,1.3,4c0.1,0.2,0.2,0.5,0.3,0.7
		C396.1,188.8,394.7,194.5,389.2,199.5L389.2,199.5z M444.1,184.8c-5.1,12.2-8.1,30.9-8.1,30.9s-3.1-18.7-8.1-30.9
		c-4.8-11.4-18.3-8.4-19.1-8.4c0,0,10.3-6.4,27.3-6.4c17,0,27.3,6.4,27.3,6.4C462.4,176.3,448.9,173.4,444.1,184.8L444.1,184.8z
		 M557.2,175.2c-2.9,9.7-15.9,20.4-26.5,21.7c-4-2.5-9.4-4.1-15.5-4.1c-11.5,0-20.8,5.6-21.7,12.7c-3.6-0.6-7.8-1.8-10.7-4.5
		c-6.7-6-7.2-13.2-7.2-13.5l-0.5,0c0.2-0.5,0.4-1,0.6-1.4c0.5-1.5,1-2.8,1.3-4.1c8.2,2.7,17.1,4.8,25.6,1.9
		c6-2.1,12.1-6.1,18.6-10.5c14.6-9.8,24.8-15.7,33.1-8.9C557.5,167.4,558.5,170.8,557.2,175.2L557.2,175.2z"/>
</g>
</svg>
