<?xml version="1.0" encoding="utf-8"?>
<!-- Generator: Adobe Illustrator 26.0.0, SVG Export Plug-In . SVG Version: 6.00 Build 0)  -->
<svg version="1.1" id="Camada_1" xmlns="http://www.w3.org/2000/svg" xmlns:xlink="http://www.w3.org/1999/xlink" x="0px" y="0px"
	 viewBox="0 0 700 700" style="enable-background:new 0 0 700 700;" xml:space="preserve">
<path d="M395,269.5c0,6.2,2.4,12.2,6.9,16.6l11.6,11.6c4.4,4.4,10.3,6.9,16.6,6.9s12.2-2.5,16.6-6.9l46.5-46.5l46.5,46.5
	c4.4,4.4,10.3,6.9,16.6,6.9c6.2,0,12.2-2.5,16.6-6.9l11.6-11.6c4.4-4.4,6.9-10.3,6.9-16.6s-2.5-12.2-6.9-16.6l-46.5-46.5l43.5-43.5
	l0,0c5.2-5.2,8.1-12.3,8.1-19.6c0-7.4-2.9-14.4-8.1-19.6c-20.1-19.7-19.7-20.5-22.5-21.5l-32-11.5h0c-21.8-7.9-45.7-7.9-67.4,0
	l-32,11.5c-1.1,0.4-2,1-2.8,1.8l-19.7,19.7h0c-5.2,5.2-8.1,12.2-8.1,19.6c0,7.4,2.9,14.4,8.1,19.6l43.5,43.5L401.8,253
	C397.4,257.3,395,263.3,395,269.5L395,269.5z M573.5,263.8c1.5,1.5,2.4,3.6,2.4,5.7c0,2.1-0.9,4.2-2.4,5.7l-11.6,11.6
	c-1.5,1.5-3.6,2.4-5.7,2.4c-2.1,0-4.2-0.9-5.7-2.4L504,240.3l23-23L573.5,263.8z M464.6,105.2c18.4-6.7,38.6-6.7,57,0l20.5,7.4
	l-25.1,25.1h0c-6.8-5.4-15.2-8.3-23.9-8.3c-8.7,0-17.1,2.9-23.9,8.3l-25.1-25.1L464.6,105.2z M493.1,161.7l-13-12.9
	c3.8-2.6,8.3-3.9,13-3.9c4.6,0,9.1,1.4,13,3.9L493.1,161.7z M415.8,152.1L415.8,152.1c-2.3-2.3-3.6-5.5-3.6-8.7s1.3-6.4,3.6-8.8
	l14.3-14.3l52.2,52.2l-23,23.1L415.8,152.1z M412.8,263.8l143.5-143.5l14.3,14.3v0c2.3,2.3,3.6,5.5,3.6,8.8c0,3.3-1.3,6.4-3.6,8.8
	L435.8,286.8c-1.5,1.5-3.6,2.4-5.7,2.4c-2.1,0-4.2-0.9-5.7-2.4l-11.6-11.6c-1.5-1.5-2.4-3.6-2.4-5.7S411.2,265.3,412.8,263.8
	L412.8,263.8z"/>
<path d="M592.8,351.1c-8.2-5.7-18.6-7.1-28-3.6l-36.3,13.3c-4.6-6.7-10.9-12.1-18.3-15.5c-7.4-3.4-15.6-4.9-23.7-4.1l-50.6,5.1
	L422,330.6c-19.9-22.3-47.3-36.5-77-39.7h-0.1c-21.8-2.4-43.9,1.5-63.5,11.4l-36.4,18.2h-27.9h0c-0.8-7.2-4.3-13.8-9.6-18.6
	c-5.4-4.8-12.4-7.5-19.6-7.5h-85.8c-4.2,0-7.7,3.4-7.7,7.7v165.4c0,2,0.8,4,2.3,5.4c1.4,1.4,3.4,2.2,5.4,2.2h107.4
	c4.2,0,7.7-3.4,7.7-7.7v-25.8h49.3l120.4,28.7c14.1,3.3,29,2,42.3-3.7l172.1-74.8h0c2.8-1.2,4.6-4,4.6-7.1v-8.6
	C605.8,366.2,601,356.8,592.8,351.1L592.8,351.1z M201.7,459.8h-92.1V309.8h78.1c3.7,0,7.3,1.5,9.9,4.1c2.6,2.6,4.1,6.2,4.1,9.9
	L201.7,459.8z M590.5,379.7L423,452.5h0c-10.3,4.4-21.7,5.5-32.6,2.9l-121.3-28.9c-0.6-0.1-1.2-0.2-1.8-0.2h-50.2v-90.5h29.5
	c1.2,0,2.4-0.3,3.4-0.8l38.1-19c17-8.5,36.1-11.9,55.1-9.8h0.1c25.9,2.9,49.8,15.2,67.2,34.7l16.6,18.5c1.6,1.8,4.1,2.8,6.5,2.5
	l54.5-5.4c6.5-0.6,13,0.9,18.6,4.2c5.6,3.4,9.9,8.5,12.3,14.5l1.8,4.4h-57.1c-4.2,0-7.7,3.4-7.7,7.7c0,4.2,3.4,7.7,7.7,7.7H532
	c2.5,0,4.9-1.3,6.3-3.4c1.4-2.1,1.7-4.8,0.8-7.1l-3.9-9.8l34.9-12.8v0c4.7-1.7,9.9-1,13.9,1.8c4.1,2.8,6.5,7.5,6.5,12.5L590.5,379.7
	z"/>
</svg>
