<?xml version="1.0" encoding="UTF-8"?>
<svg width="700pt" height="700pt" version="1.1" viewBox="0 0 700 700" xmlns="http://www.w3.org/2000/svg" xmlns:xlink="http://www.w3.org/1999/xlink">
 <defs>
  <symbol id="n" overflow="visible">
   <path d="m29.312-1.75c-1.5117 0.78125-3.0898 1.3711-4.7344 1.7656-1.6367 0.40625-3.3398 0.60938-5.1094 0.60938-5.3125 0-9.5273-1.4844-12.641-4.4531-3.1055-2.9688-4.6562-7-4.6562-12.094s1.5508-9.125 4.6562-12.094c3.1133-2.9688 7.3281-4.4531 12.641-4.4531 1.7695 0 3.4727 0.19922 5.1094 0.59375 1.6445 0.39844 3.2227 0.99219 4.7344 1.7812v6.5938c-1.5312-1.0391-3.0391-1.8008-4.5156-2.2812-1.4805-0.48828-3.0391-0.73438-4.6719-0.73438-2.9375 0-5.2461 0.94531-6.9219 2.8281-1.6797 1.875-2.5156 4.4648-2.5156 7.7656 0 3.293 0.83594 5.8828 2.5156 7.7656 1.6758 1.875 3.9844 2.8125 6.9219 2.8125 1.6328 0 3.1914-0.23828 4.6719-0.71875 1.4766-0.48828 2.9844-1.2539 4.5156-2.2969z"/>
  </symbol>
  <symbol id="i" overflow="visible">
   <path d="m21.453-17.406c-0.67969-0.3125-1.3516-0.53906-2.0156-0.6875-0.65625-0.15625-1.3203-0.23438-1.9844-0.23438-1.9688 0-3.4844 0.63281-4.5469 1.8906-1.0547 1.2617-1.5781 3.0703-1.5781 5.4219v11.016h-7.6562v-23.922h7.6562v3.9219c0.97656-1.5625 2.1016-2.7031 3.375-3.4219 1.2812-0.71875 2.8125-1.0781 4.5938-1.0781 0.25 0 0.52344 0.011719 0.82812 0.03125 0.30078 0.023438 0.73438 0.070312 1.2969 0.14062z"/>
  </symbol>
  <symbol id="d" overflow="visible">
   <path d="m27.562-12.031v2.1875h-17.891c0.1875 1.793 0.83203 3.1367 1.9375 4.0312 1.1133 0.89844 2.6719 1.3438 4.6719 1.3438 1.6016 0 3.25-0.23438 4.9375-0.70312 1.6875-0.47656 3.4219-1.2031 5.2031-2.1719v5.8906c-1.8047 0.6875-3.6094 1.2031-5.4219 1.5469-1.8125 0.35156-3.6211 0.53125-5.4219 0.53125-4.3359 0-7.7031-1.0977-10.109-3.2969-2.3984-2.207-3.5938-5.2969-3.5938-9.2656 0-3.9062 1.1758-6.9727 3.5312-9.2031 2.3633-2.2383 5.6094-3.3594 9.7344-3.3594 3.7578 0 6.7695 1.1367 9.0312 3.4062 2.2578 2.2617 3.3906 5.2812 3.3906 9.0625zm-7.8594-2.5312c0-1.457-0.42969-2.6289-1.2812-3.5156-0.84375-0.89453-1.9492-1.3438-3.3125-1.3438-1.4922 0-2.6992 0.41797-3.625 1.25-0.91797 0.83594-1.4922 2.0391-1.7188 3.6094z"/>
  </symbol>
  <symbol id="c" overflow="visible">
   <path d="m14.391-10.766c-1.5938 0-2.793 0.27344-3.5938 0.8125-0.80469 0.54297-1.2031 1.3398-1.2031 2.3906 0 0.96875 0.32031 1.7305 0.96875 2.2812 0.64453 0.54297 1.5469 0.8125 2.7031 0.8125 1.4375 0 2.6445-0.51562 3.625-1.5469 0.98828-1.0312 1.4844-2.3203 1.4844-3.875v-0.875zm11.688-2.8906v13.656h-7.7031v-3.5469c-1.0312 1.4492-2.1875 2.5078-3.4688 3.1719s-2.8398 1-4.6719 1c-2.4805 0-4.4961-0.72266-6.0469-2.1719-1.543-1.4453-2.3125-3.3203-2.3125-5.625 0-2.8125 0.96094-4.8672 2.8906-6.1719 1.9375-1.3125 4.9688-1.9688 9.0938-1.9688h4.5156v-0.60938c0-1.207-0.48047-2.0938-1.4375-2.6562-0.94922-0.5625-2.4375-0.84375-4.4688-0.84375-1.6367 0-3.1562 0.16797-4.5625 0.5-1.4062 0.32422-2.7188 0.8125-3.9375 1.4688v-5.8281c1.6445-0.40625 3.2891-0.70703 4.9375-0.90625 1.6562-0.20703 3.3047-0.3125 4.9531-0.3125 4.3203 0 7.4375 0.85547 9.3438 2.5625 1.9141 1.6992 2.875 4.4609 2.875 8.2812z"/>
  </symbol>
  <symbol id="b" overflow="visible">
   <path d="m12.031-30.719v6.7969h7.875v5.4688h-7.875v10.141c0 1.1172 0.21875 1.8711 0.65625 2.2656 0.4375 0.38672 1.3125 0.57812 2.625 0.57812h3.9375v5.4688h-6.5625c-3.0234 0-5.1641-0.62891-6.4219-1.8906-1.2617-1.2578-1.8906-3.3984-1.8906-6.4219v-10.141h-3.7969v-5.4688h3.7969v-6.7969z"/>
  </symbol>
  <symbol id="a" overflow="visible">
   <path d="m19.953-20.422v-12.812h7.6875v33.234h-7.6875v-3.4531c-1.0547 1.4062-2.2148 2.4375-3.4844 3.0938-1.2734 0.65625-2.7422 0.98438-4.4062 0.98438-2.9492 0-5.3711-1.1719-7.2656-3.5156-1.8867-2.3438-2.8281-5.3594-2.8281-9.0469s0.94141-6.7031 2.8281-9.0469c1.8945-2.3438 4.3164-3.5156 7.2656-3.5156 1.6562 0 3.1172 0.33594 4.3906 1 1.2812 0.65625 2.4453 1.6836 3.5 3.0781zm-5.0469 15.484c1.6445 0 2.8945-0.59766 3.75-1.7969 0.86328-1.1953 1.2969-2.9297 1.2969-5.2031 0-2.2812-0.43359-4.0195-1.2969-5.2188-0.85547-1.1953-2.1055-1.7969-3.75-1.7969-1.625 0-2.8711 0.60156-3.7344 1.7969-0.85547 1.1992-1.2812 2.9375-1.2812 5.2188 0 2.2734 0.42578 4.0078 1.2812 5.2031 0.86328 1.1992 2.1094 1.7969 3.7344 1.7969z"/>
  </symbol>
  <symbol id="h" overflow="visible">
   <path d="m16.406-4.9375c1.6328 0 2.8828-0.59766 3.75-1.7969 0.86328-1.1953 1.2969-2.9297 1.2969-5.2031 0-2.2812-0.43359-4.0195-1.2969-5.2188-0.86719-1.1953-2.1172-1.7969-3.75-1.7969-1.6367 0-2.8906 0.60547-3.7656 1.8125-0.875 1.1992-1.3125 2.9336-1.3125 5.2031 0 2.2617 0.4375 3.9961 1.3125 5.2031 0.875 1.1992 2.1289 1.7969 3.7656 1.7969zm-5.0781-15.484c1.0508-1.3945 2.2188-2.4219 3.5-3.0781 1.2812-0.66406 2.7539-1 4.4219-1 2.9453 0 5.3672 1.1719 7.2656 3.5156 1.8945 2.3438 2.8438 5.3594 2.8438 9.0469s-0.94922 6.7031-2.8438 9.0469c-1.8984 2.3438-4.3203 3.5156-7.2656 3.5156-1.668 0-3.1406-0.33594-4.4219-1s-2.4492-1.6914-3.5-3.0781v3.4531h-7.6562v-33.234h7.6562z"/>
  </symbol>
  <symbol id="g" overflow="visible">
   <path d="m0.53125-23.922h7.6562l6.4219 16.234 5.4688-16.234h7.6562l-10.062 26.188c-1.0117 2.6641-2.1953 4.5234-3.5469 5.5781-1.3438 1.0625-3.1211 1.5938-5.3281 1.5938h-4.4219v-5.0156h2.3906c1.3008 0 2.2422-0.21094 2.8281-0.625 0.59375-0.40625 1.0547-1.1484 1.3906-2.2188l0.20312-0.65625z"/>
  </symbol>
  <symbol id="f" overflow="visible">
   <path d="m4.0156-31.891h8.2188v25.672h14.453v6.2188h-22.672z"/>
  </symbol>
  <symbol id="e" overflow="visible">
   <path d="m3.6719-23.922h7.6562v23.922h-7.6562zm0-9.3125h7.6562v6.2344h-7.6562z"/>
  </symbol>
  <symbol id="m" overflow="visible">
   <path d="m25.844-19.953c0.96875-1.4766 2.1172-2.6016 3.4531-3.375 1.332-0.78125 2.7969-1.1719 4.3906-1.1719 2.75 0 4.8438 0.85156 6.2812 2.5469 1.4375 1.6875 2.1562 4.1523 2.1562 7.3906v14.562h-7.6875v-12.469c0.007812-0.1875 0.019531-0.37891 0.03125-0.57812 0.007812-0.19531 0.015625-0.48438 0.015625-0.85938 0-1.6953-0.25-2.9258-0.75-3.6875-0.5-0.75781-1.3086-1.1406-2.4219-1.1406-1.4492 0-2.5703 0.60156-3.3594 1.7969-0.79297 1.1992-1.2031 2.9297-1.2344 5.1875v11.75h-7.6875v-12.469c0-2.6562-0.23047-4.3633-0.6875-5.125-0.44922-0.75781-1.2578-1.1406-2.4219-1.1406-1.4688 0-2.6055 0.60547-3.4062 1.8125-0.79297 1.1992-1.1875 2.918-1.1875 5.1562v11.766h-7.7031v-23.922h7.7031v3.5c0.9375-1.3516 2.0156-2.3672 3.2344-3.0469 1.2188-0.6875 2.5547-1.0312 4.0156-1.0312 1.6562 0 3.1133 0.40234 4.375 1.2031 1.2695 0.79297 2.2344 1.9062 2.8906 3.3438z"/>
  </symbol>
  <symbol id="l" overflow="visible">
   <path d="m26.219-30.891v6.75c-1.7617-0.78125-3.4766-1.3672-5.1406-1.7656-1.668-0.40625-3.2422-0.60938-4.7188-0.60938-1.9609 0-3.4141 0.27344-4.3594 0.8125-0.9375 0.54297-1.4062 1.3867-1.4062 2.5312 0 0.85547 0.31641 1.5234 0.95312 2 0.63281 0.46875 1.7852 0.875 3.4531 1.2188l3.5 0.70312c3.5391 0.71875 6.0625 1.8047 7.5625 3.25 1.5 1.4492 2.25 3.5117 2.25 6.1875 0 3.5234-1.0469 6.1406-3.1406 7.8594-2.0859 1.7188-5.2734 2.5781-9.5625 2.5781-2.0234 0-4.0547-0.19531-6.0938-0.57812-2.0312-0.38281-4.0625-0.95703-6.0938-1.7188v-6.9375c2.0312 1.0859 3.9922 1.9023 5.8906 2.4531 1.9062 0.54297 3.7422 0.8125 5.5156 0.8125 1.7891 0 3.1602-0.29688 4.1094-0.89062 0.95703-0.60156 1.4375-1.457 1.4375-2.5625 0-1-0.32422-1.7695-0.96875-2.3125-0.64844-0.53906-1.9375-1.0234-3.875-1.4531l-3.1875-0.70312c-3.1875-0.6875-5.5234-1.7734-7-3.2656-1.4688-1.5-2.2031-3.5156-2.2031-6.0469 0-3.1758 1.0234-5.6172 3.0781-7.3281 2.0508-1.707 5-2.5625 8.8438-2.5625 1.75 0 3.5508 0.13281 5.4062 0.39062 1.8516 0.26172 3.7695 0.65625 5.75 1.1875z"/>
  </symbol>
  <symbol id="k" overflow="visible">
   <path d="m3.4219-9.3125v-14.609h7.6875v2.3906c0 1.293-0.011719 2.918-0.03125 4.875-0.011719 1.9609-0.015625 3.2656-0.015625 3.9219 0 1.9297 0.046875 3.3125 0.14062 4.1562 0.10156 0.84375 0.28125 1.4609 0.53125 1.8438 0.3125 0.5 0.71875 0.88672 1.2188 1.1562 0.50781 0.27344 1.0938 0.40625 1.75 0.40625 1.5938 0 2.8438-0.60938 3.75-1.8281 0.91406-1.2266 1.375-2.9297 1.375-5.1094v-11.812h7.6406v23.922h-7.6406v-3.4531c-1.1562 1.3867-2.3828 2.4141-3.6719 3.0781-1.2812 0.66406-2.6992 1-4.25 1-2.7734 0-4.8828-0.84766-6.3281-2.5469-1.4375-1.6953-2.1562-4.1602-2.1562-7.3906z"/>
  </symbol>
  <symbol id="j" overflow="visible">
   <path d="m15.062-19.031c-1.6992 0-2.9961 0.60938-3.8906 1.8281-0.88672 1.2188-1.3281 2.9766-1.3281 5.2656 0 2.293 0.44141 4.0469 1.3281 5.2656 0.89453 1.2188 2.1914 1.8281 3.8906 1.8281 1.6641 0 2.9375-0.60938 3.8125-1.8281 0.88281-1.2188 1.3281-2.9727 1.3281-5.2656 0-2.2891-0.44531-4.0469-1.3281-5.2656-0.875-1.2188-2.1484-1.8281-3.8125-1.8281zm0-5.4688c4.1133 0 7.3281 1.1094 9.6406 3.3281s3.4688 5.2969 3.4688 9.2344c0 3.9297-1.1562 7.0078-3.4688 9.2344-2.3125 2.2188-5.5273 3.3281-9.6406 3.3281-4.1367 0-7.3711-1.1094-9.7031-3.3281-2.3242-2.2266-3.4844-5.3047-3.4844-9.2344 0-3.9375 1.1602-7.0156 3.4844-9.2344 2.332-2.2188 5.5664-3.3281 9.7031-3.3281z"/>
  </symbol>
 </defs>
 <g>
  <path d="m314.12 393.38c-33.531-8.6094-68.539-9.7734-102.57-3.4141-4.1875 0.77734-6.9492 4.8008-6.168 8.9883 0.77734 4.1836 4.8008 6.9453 8.9844 6.168 31.84-5.9492 64.598-4.8594 95.969 3.1953 0.62109 0.16016 1.2578 0.24219 1.8984 0.24219 3.8828 0.003906 7.1562-2.8828 7.6406-6.7344 0.48047-3.8477-1.9805-7.457-5.7422-8.4102z"/>
  <path d="m385.88 393.38c-3.7617 0.95313-6.2227 4.5625-5.7383 8.4102 0.48047 3.8516 3.7578 6.7383 7.6367 6.7344 0.64453 0 1.2852-0.082032 1.9062-0.24219 31.371-8.0391 64.117-9.1172 95.945-3.1602 4.125 0.67188 8.0352-2.0742 8.7969-6.1875 0.76562-4.1094-1.8945-8.0781-5.9883-8.9336-34.023-6.3711-69.027-5.2148-102.56 3.3789z"/>
  <path d="m317.72 365.67c-31.465-8.0781-64.32-9.1719-96.25-3.2031-4.1797 0.77734-6.9375 4.793-6.1602 8.9688 0.77344 4.1758 4.7891 6.9375 8.9688 6.1602 29.734-5.5625 60.324-4.5469 89.625 2.9766 0.62109 0.16016 1.2656 0.24219 1.9062 0.24219 3.8828 0.003906 7.1562-2.8828 7.6406-6.7344 0.48047-3.8477-1.9805-7.457-5.7422-8.4102z"/>
  <path d="m382.29 365.67c-3.7617 0.95312-6.2227 4.5625-5.7422 8.4102 0.48438 3.8516 3.7578 6.7383 7.6406 6.7344 0.64062 0 1.2852-0.082031 1.9062-0.24219 29.305-7.5234 59.898-8.5352 89.637-2.9766 4.1758 0.77734 8.1914-1.9844 8.9688-6.1602 0.77344-4.1758-1.9844-8.1914-6.1602-8.9688-31.934-5.9688-64.785-4.875-96.25 3.2031z"/>
  <path d="m224.18 343.95c0.78516 4.1641 4.7969 6.9023 8.9609 6.125 28.32-5.293 57.457-4.3203 85.363 2.8438 0.625 0.15625 1.2656 0.23438 1.9102 0.23828 3.8789 0.003906 7.1523-2.8867 7.6367-6.7344 0.48437-3.8516-1.9766-7.457-5.7383-8.4141-30.07-7.7148-61.461-8.7578-91.973-3.0547-2.0117 0.375-3.793 1.5312-4.9492 3.2188s-1.5898 3.7695-1.2109 5.7773z"/>
  <path d="m377.71 338.05c-3.7578 0.95312-6.2188 4.5586-5.7383 8.4062 0.47656 3.8516 3.75 6.7383 7.6289 6.7422 0.64453-0.003906 1.2852-0.082031 1.9062-0.23828 27.898-7.1641 57.027-8.1367 85.34-2.8438 2.0273 0.42188 4.1367 0.011719 5.8555-1.1406s2.9023-2.9492 3.2812-4.9844c0.375-2.0352-0.082031-4.1328-1.2734-5.8281-1.1875-1.6914-3.0117-2.832-5.0547-3.168-30.504-5.7031-61.887-4.6602-91.945 3.0547z"/>
  <path d="m245.27 322.57c24.75-4.625 50.211-3.7773 74.594 2.4844 0.625 0.15625 1.2656 0.23437 1.9102 0.23437 3.8633-0.015624 7.1172-2.9023 7.5938-6.7383 0.48047-3.8359-1.9609-7.4297-5.7031-8.3984-26.547-6.8164-54.262-7.7422-81.203-2.7031-2.043 0.33203-3.8633 1.4727-5.0547 3.168-1.1914 1.6914-1.6484 3.793-1.2695 5.8281 0.37891 2.0352 1.5586 3.832 3.2773 4.9844 1.7188 1.1523 3.832 1.5625 5.8555 1.1406z"/>
  <path d="m378.25 325.29c0.64062 0 1.2812-0.078124 1.9062-0.23437 24.383-6.2617 49.84-7.1094 74.586-2.4844 2.0234 0.42188 4.1367 0.011719 5.8555-1.1406 1.7188-1.1523 2.9023-2.9492 3.2773-4.9844 0.37891-2.0352-0.078125-4.1367-1.2695-5.8281-1.1914-1.6953-3.0117-2.8359-5.0547-3.168-26.938-5.0391-54.648-4.1133-81.191 2.7031-3.7422 0.96875-6.1875 4.5625-5.707 8.3984 0.48047 3.8359 3.7305 6.7227 7.5977 6.7383z"/>
  <path d="m537.54 331.36c-4.7422-8.2695-11.582-15.141-19.824-19.926-8.2461-4.7852-17.605-7.3125-27.137-7.332h-6.293c-4.3945-8.4688-11.035-15.566-19.195-20.512-8.1602-4.9492-17.523-7.5586-27.066-7.5391h-61.93c-6.9375-0.003907-13.793 1.457-20.125 4.2852l-5.0938 2.2852c-0.55859 0.24609-1.1914 0.24609-1.75 0l-5.0664-2.2578c-6.332-2.8281-13.191-4.2891-20.125-4.2891h-61.949c-9.543-0.015625-18.906 2.5898-27.062 7.5391-8.1602 4.9453-14.797 12.047-19.191 20.516h-6.293 0.003906c-9.5352 0.011719-18.898 2.5352-27.141 7.3203-8.2461 4.7852-15.082 11.664-19.82 19.938l-58.223 101.84-7.1328 12.449c-3.9922 6.9883-3.9648 15.57 0.074219 22.531 4.0391 6.957 11.48 11.238 19.527 11.238h466.54c8.0469 0 15.488-4.2812 19.527-11.238 4.0391-6.9609 4.0664-15.543 0.074219-22.531zm-275.55-39.945h61.922c4.7852-0.003907 9.5195 1 13.887 2.9492l5.0938 2.2656c4.5352 2.0117 9.7109 2.0117 14.246 0l5.0664-2.2578c4.3711-1.9531 9.1055-2.9609 13.895-2.957h61.922c6.7305-0.011719 13.332 1.8281 19.09 5.3164 5.7539 3.4922 10.438 8.4961 13.539 14.469l2.1719 4.1562 0.078125 0.14844 23.02 44.16 30.906 59.254c0.75 1.4609 0.60547 3.2148-0.36719 4.5352-0.95703 1.3164-2.5859 1.9609-4.1836 1.6602l-6.7891-1.2344v0.003907c-46.422-8.4453-94.008-8.2539-140.36 0.56641l-18.375 3.5c-4.4453 0.84766-9.0117 0.84766-13.457 0l-18.375-3.5c-46.355-8.8242-93.941-9.0156-140.37-0.56641l-6.7812 1.2344v-0.003906c-1.6055 0.26953-3.2266-0.375-4.2109-1.668-0.97266-1.3164-1.1016-3.0742-0.33203-4.5156l53.926-103.43 0.070312-0.13281 2.1719-4.1836v0.003906c3.0977-5.9688 7.7773-10.969 13.523-14.457 5.75-3.4883 12.348-5.3281 19.07-5.3203zm-151.46 169.07c-1.2773-2.2188-1.2773-4.9531 0-7.1719l7.1133-12.453c17.621-30.836 42.875-75.047 58.215-101.87 6.5977-11.5 18.609-18.832 31.852-19.441l-48.125 92.262v-0.003906c-2.2891 4.3711-2.8477 9.4375-1.5703 14.203 1.2773 4.7617 4.3008 8.8711 8.4648 11.508 4.168 2.6367 9.1758 3.6094 14.027 2.7266l6.7734-1.2266-0.003906 0.003907c44.57-8.1094 90.25-7.9258 134.75 0.54297l18.375 3.5c0.62891 0.12109 1.2617 0.21875 1.8984 0.31641v20.703l-225.55-0.003907c-2.5664-0.007812-4.9336-1.3789-6.2227-3.5977zm478.96 0h0.003906c-1.2891 2.2188-3.6602 3.582-6.2227 3.5898h-225.57v-20.711c0.64062-0.097656 1.2773-0.19141 1.9062-0.31641l18.375-3.5c44.504-8.4688 90.184-8.6523 134.75-0.54297l6.7734 1.2266c4.8477 0.875 9.8477-0.10156 14.012-2.7344 4.1602-2.6367 7.1836-6.7383 8.4688-11.492 1.2812-4.7578 0.73047-9.8242-1.543-14.195l-30.906-59.273-17.184-32.984c13.238 0.61719 25.246 7.9492 31.844 19.441l65.328 114.31c1.2578 2.2305 1.25 4.957-0.027344 7.1758z"/>
  <path d="m350 401.52c4.2461-0.003906 7.6836-3.4453 7.6836-7.6914v-71.312c-0.14062-4.1445-3.543-7.4297-7.6875-7.4297-4.1484 0-7.5469 3.2852-7.6875 7.4297v71.312c0 4.25 3.4453 7.6914 7.6914 7.6914z"/>
  <path d="m259.54 206.08c-3.6797-2.1211-8.3867-0.85938-10.512 2.8203-2.1211 3.6797-0.85938 8.3828 2.8203 10.508l9.1523 5.25-7.0781 12.25c-1.0234 1.7656-1.2969 3.8672-0.76953 5.8398 0.52734 1.9688 1.8164 3.6484 3.5859 4.668 3.6797 2.125 8.3828 0.86328 10.508-2.8164l7.0781-12.25 9.1445 5.25c1.7695 1.0742 3.8945 1.3867 5.8984 0.875 2.0039-0.51562 3.7188-1.8125 4.75-3.6055 1.0352-1.7891 1.3047-3.9219 0.75-5.9141-0.55859-1.9922-1.8945-3.6758-3.707-4.6719l-9.1523-5.25 30.004-51.906c4.875 1.8047 10.035 2.7305 15.234 2.7383 3.9297 0 7.8398-0.51953 11.637-1.5391 2.6836-0.72266 5.2969-1.6914 7.8047-2.8867 6.0586 2.8867 12.688 4.3789 19.398 4.375 5.1992 0.003906 10.359-0.90625 15.242-2.6875l36.504 63.227-17.141-3.0469v0.003906c-2.0391-0.43359-4.1641-0.019532-5.8945 1.1445-1.7266 1.1641-2.9062 2.9844-3.2734 5.0352-0.36328 2.0508 0.12109 4.1641 1.3438 5.8516 1.2227 1.6875 3.0742 2.8086 5.1406 3.1055l33.406 5.9414c3.6797 0.62891 7.2852-1.4531 8.5742-4.9531l11.559-31.895c1.4492-3.9922-0.61328-8.4062-4.6055-9.8555-3.9961-1.4492-8.4062 0.61328-9.8594 4.6055l-5.9336 16.363-36.52-63.234c11.258-9.3789 17.191-23.688 15.883-38.277-1.3125-14.594-9.7031-27.613-22.449-34.836-12.746-7.2227-28.227-7.7266-41.418-1.3516-13.191-6.375-28.672-5.8711-41.418 1.3516-12.75 7.2227-21.137 20.242-22.449 34.836-1.3125 14.59 4.625 28.898 15.883 38.277l-29.996 51.949zm96.047-88.469c2.0352 7.4961 0.98438 15.492-2.9219 22.207-1.5859 2.75-3.6055 5.2227-5.9844 7.3242-6.3281-5.5469-9.9531-13.551-9.9531-21.965 0-8.4102 3.625-16.414 9.9531-21.961 4.332 3.8086 7.4336 8.8164 8.9062 14.395zm35.77-7.0625c3.7109 6.4219 4.8438 14.008 3.1719 21.234-1.6719 7.2227-6.0273 13.539-12.18 17.676s-13.648 5.7812-20.969 4.6055c1.7305-2.0469 3.2734-4.2383 4.6211-6.5547 4.5898-7.9727 6.6094-17.168 5.7891-26.332-0.82422-9.1641-4.4492-17.852-10.383-24.883 1.5078-0.24219 3.0352-0.36719 4.5664-0.375 5.1445-0.003907 10.195 1.3438 14.652 3.9141 4.457 2.5664 8.1562 6.2617 10.73 10.715zm-89.371 0c5.2383-9.0586 14.91-14.633 25.375-14.629 1.5391 0.003906 3.0742 0.13281 4.5938 0.38281-5.9453 7.0234-9.5781 15.711-10.406 24.871-0.82812 9.1641 1.1875 18.359 5.7773 26.336 1.3516 2.3203 2.9062 4.5156 4.6445 6.5625-7.3203 1.1836-14.82-0.46094-20.98-4.5938-6.1562-4.1367-10.516-10.457-12.191-17.684-1.6758-7.2305-0.54297-14.82 3.168-21.246z"/>
  <use x="70" y="691.25" xlink:href="#n"/>
  <use x="102.109375" y="691.25" xlink:href="#i"/>
  <use x="123.683594" y="691.25" xlink:href="#d"/>
  <use x="153.355469" y="691.25" xlink:href="#c"/>
  <use x="182.878906" y="691.25" xlink:href="#b"/>
  <use x="203.792969" y="691.25" xlink:href="#d"/>
  <use x="233.464844" y="691.25" xlink:href="#a"/>
  <use x="280.011719" y="691.25" xlink:href="#h"/>
  <use x="311.328125" y="691.25" xlink:href="#g"/>
  <use x="355.078125" y="691.25" xlink:href="#f"/>
  <use x="382.957031" y="691.25" xlink:href="#e"/>
  <use x="397.953125" y="691.25" xlink:href="#m"/>
  <use x="443.542969" y="691.25" xlink:href="#c"/>
  <use x="488.296875" y="691.25" xlink:href="#l"/>
  <use x="519.804688" y="691.25" xlink:href="#b"/>
  <use x="540.71875" y="691.25" xlink:href="#k"/>
  <use x="571.863281" y="691.25" xlink:href="#a"/>
  <use x="603.183594" y="691.25" xlink:href="#e"/>
  <use x="618.179688" y="691.25" xlink:href="#j"/>
 </g>
</svg>
