<?xml version="1.0" encoding="utf-8"?>
<!-- Generator: Adobe Illustrator 26.0.0, SVG Export Plug-In . SVG Version: 6.00 Build 0)  -->
<svg version="1.1" id="Camada_1" xmlns="http://www.w3.org/2000/svg" xmlns:xlink="http://www.w3.org/1999/xlink" x="0px" y="0px"
	 viewBox="0 0 700 700" style="enable-background:new 0 0 700 700;" xml:space="preserve">
<g>
	<path d="M292.3,368.4c-9.2-0.9-18.5,2.1-25.3,8.3c-2,1.8-3.8,3.9-5.3,6.2c-1.5-2.3-3.3-4.3-5.3-6.2c-6.8-6.2-16.1-9.2-25.3-8.3
		c-14.6,1.4-26.6,12.5-29,27c-0.3,1.6-0.4,3.3-0.5,4.9c-0.2,7.3,2.4,14.5,7.2,20.5l6.2,7.8l37,40.2c2.4,2.9,6,4.6,9.8,4.6
		c3.8,0,7.3-1.7,9.8-4.6l36.8-39.9l6.4-8c4.8-6,7.3-13.3,7.2-20.5c0-1.6-0.2-3.3-0.5-4.9C318.8,380.9,306.9,369.8,292.3,368.4
		L292.3,368.4z M306,414l-6.1,7.6l-36.8,39.9l-0.2,0.3c-0.4,0.6-1,0.6-1.3,0.6c-0.3,0-0.9-0.1-1.3-0.6l-37-40.2l-6.1-7.6
		c-3.2-4-4.9-8.8-4.8-13.5c0-1.1,0.1-2.2,0.3-3.3c1.6-9.6,9.6-17,19.3-17.9c6.3-0.6,12.3,1.4,16.9,5.5c4.6,4.1,7.2,10,7.2,16.2v6.5
		h10.9V401c0-6.2,2.6-12.1,7.2-16.2c4.6-4.2,10.6-6.2,16.9-5.5c9.7,1,17.7,8.3,19.3,17.9c0.2,1.1,0.3,2.2,0.3,3.3
		C310.9,405.2,309.2,410,306,414L306,414z"/>
	<path d="M580.8,418.8H421.7l-4.7-7.4l13.1-20.7L417,370l13.1-20.7L417,328.5l13.1-20.7L417,287l16.6-26.2h-344l16.6,26.2
		l-13.1,20.7l13.1,20.7l-13.1,20.7l13.1,20.7l-13.1,20.7l13.1,20.7l-13.1,20.7l13.1,20.7l-13.1,20.7l13.1,20.7l-13.1,20.7l13.1,20.7
		L89.7,562H293v-10.9H109.5l9.7-15.3l-13.1-20.7l13.1-20.7l-13.1-20.7l13.1-20.7l-13.1-20.7l13.1-20.7l-13.1-20.7l13.1-20.7
		l-13.1-20.7l13.1-20.7l-13.1-20.7l13.1-20.7l-9.7-15.3h304.2l-9.7,15.3l13.1,20.7l-13.1,20.7l13.1,20.7L404.1,370l13.1,20.7
		l-13.1,20.7l4.7,7.4h-18.6V288.5h-10.9v130.3h-13.1c0.2-2.5,0.3-4.9,0.3-7.4c0-57.8-47-104.8-104.8-104.8
		c-57.8,0-104.8,47-104.8,104.8c0,57.8,47,104.8,104.8,104.8c16.2,0,32.1-3.8,46.5-10.9v23.4H162.5v10.9h145.7v17.6
		c0,15.6,12.7,28.3,28.3,28.3h244.4c15.6,0,28.3-12.7,28.3-28.3V447C609,431.5,596.4,418.8,580.8,418.8L580.8,418.8z M261.6,505.3
		c-51.7,0-93.8-42.1-93.8-93.8c0-51.7,42.1-93.8,93.8-93.8c51.7,0,93.8,42.1,93.8,93.8c0,2.4-0.1,4.9-0.3,7.4h-5.5
		c0.2-2.4,0.3-4.9,0.3-7.4c0-48.7-39.6-88.3-88.3-88.3c-48.7,0-88.3,39.6-88.3,88.3c0,48.7,39.6,88.3,88.3,88.3
		c16.5,0,32.6-4.7,46.5-13.2v6.4C294,501,278,505.3,261.6,505.3L261.6,505.3z M308.2,447v26.2c-13.3,10-29.8,15.5-46.5,15.5
		c-42.7,0-77.4-34.7-77.4-77.4c0-42.7,34.7-77.4,77.4-77.4c42.7,0,77.4,34.7,77.4,77.4c0,2.4-0.1,4.9-0.4,7.4h-2.3
		C320.8,418.8,308.2,431.5,308.2,447L308.2,447z M598.1,557.3c0,9.6-7.8,17.3-17.3,17.3H336.4c-9.6,0-17.3-7.8-17.3-17.3V447
		c0-9.6,7.8-17.3,17.3-17.3h244.4c9.6,0,17.3,7.8,17.3,17.3V557.3z"/>
	<path d="M133.1,288.5H144v245.9h-10.9V288.5z"/>
	<path d="M162.5,282.8h198.6v10.9H162.5V282.8z"/>
	<path d="M390.6,496.7h155.5v10.9H390.6V496.7z"/>
	<path d="M368.8,496.7h11.5v10.9h-11.5V496.7z"/>
	<path d="M329.1,496.7h30v10.9h-30V496.7z"/>
	<path d="M578.6,517.3l-22.5-22.5l7.7-7.7l22.5,22.5L578.6,517.3z"/>
	<path d="M578.6,485.5L556.1,463l7.7-7.7l22.5,22.5L578.6,485.5z"/>
	<path d="M578.6,549.1l-22.5-22.5l7.7-7.7l22.5,22.5L578.6,549.1z"/>
	<path d="M355.6,526.7c-9.8,0-17.8,8-17.8,17.8c0,9.8,8,17.8,17.8,17.8c9.8,0,17.8-8,17.8-17.8C373.4,534.7,365.4,526.7,355.6,526.7
		z M355.6,551.4c-3.8,0-6.9-3.1-6.9-6.9c0-3.8,3.1-6.9,6.9-6.9s6.9,3.1,6.9,6.9C362.5,548.3,359.4,551.4,355.6,551.4z"/>
	<path d="M355.6,477.1c9.8,0,17.8-8,17.8-17.8s-8-17.8-17.8-17.8s-17.8,8-17.8,17.8C337.8,469.1,345.8,477.1,355.6,477.1z
		 M355.6,452.3c3.8,0,6.9,3.1,6.9,6.9s-3.1,6.9-6.9,6.9s-6.9-3.1-6.9-6.9C348.7,455.4,351.8,452.3,355.6,452.3z"/>
	<path d="M466.4,526.7c-9.8,0-17.8,8-17.8,17.8c0,9.8,8,17.8,17.8,17.8c9.8,0,17.8-8,17.8-17.8C484.2,534.7,476.2,526.7,466.4,526.7
		z M466.4,551.4c-3.8,0-6.9-3.1-6.9-6.9c0-3.8,3.1-6.9,6.9-6.9s6.9,3.1,6.9,6.9C473.2,548.3,470.2,551.4,466.4,551.4z"/>
	<path d="M466.4,477.1c9.8,0,17.8-8,17.8-17.8s-8-17.8-17.8-17.8c-9.8,0-17.8,8-17.8,17.8C448.5,469.1,456.5,477.1,466.4,477.1z
		 M466.4,452.3c3.8,0,6.9,3.1,6.9,6.9s-3.1,6.9-6.9,6.9s-6.9-3.1-6.9-6.9C459.5,455.4,462.6,452.3,466.4,452.3z"/>
	<path d="M521.7,526.7c-9.8,0-17.8,8-17.8,17.8c0,9.8,8,17.8,17.8,17.8c9.8,0,17.8-8,17.8-17.8C539.6,534.7,531.6,526.7,521.7,526.7
		z M521.7,551.4c-3.8,0-6.9-3.1-6.9-6.9c0-3.8,3.1-6.9,6.9-6.9s6.9,3.1,6.9,6.9C528.6,548.3,525.5,551.4,521.7,551.4z"/>
	<path d="M521.7,477.1c9.8,0,17.8-8,17.8-17.8s-8-17.8-17.8-17.8c-9.8,0-17.8,8-17.8,17.8C503.9,469.1,511.9,477.1,521.7,477.1z
		 M521.7,452.3c3.8,0,6.9,3.1,6.9,6.9s-3.1,6.9-6.9,6.9s-6.9-3.1-6.9-6.9C514.9,455.4,517.9,452.3,521.7,452.3z"/>
	<path d="M411,526.7c-9.8,0-17.8,8-17.8,17.8c0,9.8,8,17.8,17.8,17.8c9.8,0,17.8-8,17.8-17.8C428.8,534.7,420.8,526.7,411,526.7z
		 M411,551.4c-3.8,0-6.9-3.1-6.9-6.9c0-3.8,3.1-6.9,6.9-6.9s6.9,3.1,6.9,6.9C417.8,548.3,414.8,551.4,411,551.4z"/>
	<path d="M411,477.1c9.8,0,17.8-8,17.8-17.8s-8-17.8-17.8-17.8c-9.8,0-17.8,8-17.8,17.8C393.1,469.1,401.1,477.1,411,477.1z
		 M411,452.3c3.8,0,6.9,3.1,6.9,6.9s-3.1,6.9-6.9,6.9s-6.9-3.1-6.9-6.9C404.1,455.4,407.2,452.3,411,452.3z"/>
	<path d="M525.1,142.4v19h-19v26.2h19v19h26.2v-19h19v-26.2h-19v-19H525.1z M559.4,172.3v4.4l-19,0v19H536v-19h-19v-4.4h19v-19h4.4
		v19L559.4,172.3z"/>
	<path d="M481.8,310.6c15,0,27.3,12.2,27.3,27.3c0,9.3-4.7,17.9-12.5,22.9l5.9,9.2c11-7.1,17.5-19.1,17.5-32.1
		c0-19.2-14.2-35.1-32.7-37.8v-14.6l8.4,8.4l7.7-7.7l-21.5-21.5l-21.7,21.7l7.7,7.7l8.4-8.4V300c-18.5,2.7-32.7,18.6-32.7,37.8
		c0,20.4,15.9,37.1,36.2,38.1l0.6-10.9c-14.5-0.7-25.9-12.7-25.9-27.2C454.5,322.8,466.7,310.6,481.8,310.6L481.8,310.6z"/>
	<path d="M565.9,301.3l-8.4,8.4l-6.9-6.9l-7.7,7.7l6.9,6.9l-7.3,7.3c-6-4.5-13.2-7.1-20.8-7.5l-0.6,10.9c6.7,0.4,13.1,3.2,17.8,7.9
		c10.6,10.6,10.6,27.9,0,38.5s-27.9,10.6-38.5,0s-10.6-27.9,0-38.5c1.5-1.5,3.2-2.8,5-3.9l-5.8-9.3c-2.5,1.5-4.8,3.4-6.9,5.5
		c-14.9,14.9-14.9,39.1,0,54c7.4,7.4,17.2,11.2,27,11.2c9.8,0,19.6-3.7,27-11.2c13.6-13.6,14.8-34.9,3.6-49.9l7.3-7.3l6.9,6.9
		l7.7-7.7l-6.9-6.9l8.4-8.4L565.9,301.3z"/>
	<path d="M399.9,222.6h165.6v10.9H399.9V222.6z"/>
	<path d="M399.9,180.7h44.2v10.9h-44.2V180.7z"/>
	<path d="M399.9,200.7h81.2v10.9h-81.2V200.7z"/>
	<path d="M596.2,408.2V119.6H369.1v128.1H380V130.5h205.3v277.7L596.2,408.2z"/>
	<path d="M304.6,126.2l-55.3,55.3L233,165.1l-7.7,7.7l24.1,24.1l63-63L304.6,126.2z"/>
	<path d="M338.9,229.3c2.2-1.2,3.4-3.7,3-6.2c-0.4-2.5-2.2-4.5-4.7-5c-3.7-0.8-9.1-2.8-13.6-7.6c-1.6-1.7-3-3.6-4.1-5.6
		c16.8-18.8,22.8-44.9,15.6-69.3c-5.5-18.6-18-33.9-35.2-43.2c-17.2-9.3-36.8-11.3-55.3-5.7c-18.9,5.7-34.4,18.5-43.5,35.9
		c-9.1,17.5-10.8,37.5-4.7,56.2c9.9,30.5,39.2,51,71.2,50.1l-0.3-10.9c-27.2,0.8-52.1-16.7-60.5-42.6c-5.2-15.9-3.8-32.9,4-47.8
		c7.8-14.9,20.9-25.7,37-30.5c15.7-4.7,32.4-3,47,4.9c14.6,7.9,25.3,20.9,29.9,36.7c6.5,21.7,0.5,45.2-15.5,61.2l-2.5,2.5l1.3,3.3
		c1.8,4.6,4.5,8.7,7.9,12.3c2.3,2.4,4.7,4.2,7.1,5.7c-17.8,3.8-32.5-7.4-33.3-7.9l-6.7,8.6c0.8,0.6,14.4,11,32.6,11
		C322.7,235.6,330.7,233.9,338.9,229.3L338.9,229.3z"/>
</g>
</svg>
