<?xml version="1.0" encoding="utf-8"?>
<!-- Generator: Adobe Illustrator 26.0.0, SVG Export Plug-In . SVG Version: 6.00 Build 0)  -->
<svg version="1.1" id="Camada_1" xmlns="http://www.w3.org/2000/svg" xmlns:xlink="http://www.w3.org/1999/xlink" x="0px" y="0px"
	 viewBox="0 0 700 700" style="enable-background:new 0 0 700 700;" xml:space="preserve">
<g>
	<path d="M462.2,367.2h10.3l-39.4-149.7c-2.7-10.4-10.2-19-20-23.3l-45.6-19.5c11.2-11.2,17.5-26.4,17.5-42.2v-14.8
		c0-13.3-7.4-25.5-19.4-31.5l-0.5-0.2c-9.5-4.8-20.8-4.8-30.4,0l-1.1,0.5c-11.6,5.8-18.9,17.7-18.8,30.6v15.2
		c0,15.9,6.3,31.1,17.6,42.2l-45.5,19.5c-10,4.3-17.3,12.8-20,23.3l-39.4,149.8h10.3c14.8,0,28-9.3,32.9-23.2l35.5-99.3l-8.8,122.5
		l-26.2,227.5h6.6c16.6,0,30.8-11.6,34.2-27.9l38-182.1l38,182.1c3.4,16.2,17.7,27.9,34.2,27.9h6.6l-26.2-227.5l-8.8-122.5
		l35.5,99.3C434.2,358,447.5,367.3,462.2,367.2L462.2,367.2z M364.4,300.3l-9.4-9.4l6.2-6.2l9.4,9.4L364.4,300.3z M371.9,255
		c0,5.8-2.3,11.4-6.5,15.4l-29.9,29.9l-6.2-6.2l29.9-29.9c2.5-2.4,3.8-5.8,3.8-9.3v-1.4c0-7.2-5.9-13.1-13.1-13.1
		s-13.1,5.9-13.1,13.1v1.5c0,3.5,1.4,6.8,3.8,9.3l4.6,4.6l-6.2,6.2l-4.6-4.6c-4.2-4-6.5-9.6-6.5-15.4v-1.6c0-12,9.8-21.9,21.9-21.9
		s21.9,9.8,21.9,21.9v1.5L371.9,255z"/>
	<path d="M95.9,158.9c2.4,5.4,8.3,8.2,14,6.7c2.5-0.7,5.2-0.4,7.7,0.5l10.8,4.5l-9.6,3.5c-2.4,0.9-5.1,0.9-7.5,0.1
		c-5.6-1.9-11.7,0.7-14.3,5.8l-3.9,7.4c-1,1.8-0.5,4,1,5.4l6.3,5.5c4.4,3.8,10.9,4,15.5,0.3c2.1-1.6,4.6-2.5,7.2-2.6l11-0.3
		c0.5,1.1,1.1,2.3,1.8,3.4l-5.2,7.5c-1.5,2.2-3.6,3.7-6.1,4.5c-5.6,1.8-9.1,7.3-8.3,13.1l1.1,8.3c0.2,2,1.9,3.6,3.9,3.7l8.3,0.9
		c5.8,0.5,11.3-3.2,12.8-8.8c0.7-2.5,2.2-4.7,4.3-6.2l6.5-4.8c1.4,0.9,2.8,1.8,4.3,2.4l0.1,9.6c0,2.6-0.8,5.1-2.4,7.2
		c-3.5,4.7-3.2,11.3,0.9,15.5l5.8,6.1c1.4,1.4,3.6,1.8,5.4,0.8l7.2-4.2c5.1-3,7.3-9.1,5.2-14.5c-0.9-2.4-1-5.1-0.1-7.7l2.2-7.1h2
		l3.8,8.1c1.1,2.4,1.4,5,0.9,7.5c-1.3,5.7,1.8,11.5,7.2,13.8l7.8,3.2c1.9,0.8,4,0.1,5.2-1.5l4.9-6.8c3.4-4.7,3-11.3-1.2-15.4
		c-1.9-1.9-3-4.3-3.3-6.8l-1-9l1.6-1l7.4,5.1c2.2,1.5,3.7,3.6,4.5,6.1c1.8,5.6,7.3,9.1,13.1,8.3l8.3-1.1c2-0.2,3.6-1.9,3.7-3.9
		l0.9-8.3c0.5-5.8-3.2-11.3-8.8-12.8c-2.5-0.7-4.7-2.2-6.2-4.3l-5.4-7.2c0.3-0.5,0.7-1.1,1-1.8l9,0.8c2.6,0.2,5,1.3,7,3.1
		c4.3,3.9,10.8,4.3,15.5,0.7l6.7-5.1c1.6-1.2,2.2-3.4,1.3-5.2l-3.5-7.7c-2.4-5.4-8.3-8.2-14-6.7c-2.5,0.7-5.1,0.4-7.5-0.5l-8.2-3.5
		v-2l7-2.5c2.4-0.9,5.1-0.9,7.5-0.1c5.6,1.9,11.7-0.7,14.3-5.8l3.9-7.4c1-1.8,0.5-4-1-5.4l-6.3-5.6c-4.4-3.8-10.9-4-15.5-0.3
		c-2,1.6-4.5,2.5-7.1,2.6l-9.7,0.2c-0.8-1.4-1.6-2.8-2.6-4.2l4.6-6.6c1.5-2.2,3.6-3.7,6.1-4.5c5.6-1.8,9.1-7.3,8.3-13.1l-1.1-8.3
		c-0.3-2-1.9-3.6-3.9-3.7l-8.3-0.9c-5.8-0.5-11.3,3.2-12.8,8.8c-0.7,2.5-2.2,4.7-4.3,6.2l-7.3,5.5c-1.2-0.7-2.3-1.2-3.5-1.6v-11.2
		c0-2.6,0.8-5.1,2.4-7.2c3.5-4.7,3.2-11.3-0.9-15.5l-5.8-6.1c-1.4-1.4-3.6-1.8-5.4-0.8l-7.2,4.2c-5.1,3-7.3,9.1-5.2,14.5
		c0.9,2.4,1,5.1,0.2,7.5l-3.6,9.7l-5-10.6c-1.1-2.3-1.4-5-0.9-7.5c1.3-5.7-1.8-11.5-7.2-13.8l-7.8-3.2c-1.9-0.8-4-0.1-5.2,1.5
		l-4.9,6.8c-3.4,4.7-3,11.3,1.2,15.4c1.9,1.9,3,4.3,3.3,6.8l1.3,11.4l-9.4-6.6c-2.2-1.5-3.7-3.6-4.5-6.1c-1.8-5.6-7.3-9.1-13.1-8.3
		l-8.3,1.1c-2,0.2-3.6,1.9-3.7,3.9l-0.9,8.3c-0.5,5.8,3.2,11.3,8.8,12.8c2.5,0.7,4.7,2.2,6.3,4.3l7.1,9.3l-11.7-1.1
		c-2.6-0.2-5-1.3-7-3.1c-3.9-3.8-10.5-4.2-15.1-0.5l-6.7,5.1c-1.6,1.2-2.2,3.4-1.3,5.2L95.9,158.9z M105.8,147.8
		c1.2-1,3.1-0.9,4.2,0.2c3.3,3.1,7.5,4.9,12,5.4L138,155c1,0.1,2-0.1,2.7-0.7l7.8,10.2l7-5.2l-21.1-28.1c-2.7-3.6-6.6-6.2-10.9-7.4
		c-1.5-0.4-2.5-1.9-2.4-3.5l0.4-4.9l4.9-0.7c1.5-0.2,3.1,0.8,3.5,2.3c1.3,4.4,4.2,8.1,7.9,10.7l25.5,17.7l5-7.2l-7.2-5
		c0.3-0.8,0.4-1.5,0.3-2.3l-1.9-16.2c-0.5-4.5-2.5-8.8-5.8-11.9c-1.1-1.1-1.3-3-0.3-4.2l2.8-4l4.6,1.9c1.4,0.5,2.3,2.2,2,3.7
		c-1,4.5-0.4,9.1,1.4,13.2l6.6,13.9c0.7,1.3,1.9,2.3,3.4,2.4l-5,16l8.3,2.6l11-35.1c1.4-4.4,1.3-9-0.3-13.2
		c-0.5-1.5,0.1-3.2,1.4-3.9l4.3-2.4l3.4,3.6c1.1,1.2,1.2,3,0.2,4.2c-2.7,3.6-4.2,8-4.2,12.6v34.9h8.8v-14.1c0.5,0.3,1.1,0.5,1.6,0.9
		c1.5,0.9,3.5,0.8,4.9-0.2l9.6-7.2c3.6-2.7,6.2-6.6,7.4-10.9c0.4-1.5,1.9-2.5,3.5-2.4l4.9,0.4l0.7,4.9c0.2,1.5-0.8,3.1-2.3,3.5
		c-4.4,1.3-8.1,4.2-10.7,7.9l-6.5,9.1c-1.1,1.6-1.1,3.7,0.1,5.2c1.9,2.4,3.6,5,4.9,7.8c0.8,1.5,2.3,2.4,3.9,2.4h0.1l12.4-0.2
		c4.6-0.1,9-1.8,12.5-4.6c1.2-1,3.1-1,4.2,0.1l3.7,3.3l-2.3,4.4c-0.8,1.4-2.4,2.1-3.9,1.5c-4.3-1.4-9-1.3-13.2,0.2l-10.1,3.6
		c-1.9,0.7-3.1,2.5-2.8,4.6c0,0.2,0,0.5,0.1,0.8l-4.9-2.1l-3.4,8.1l22,9.4c4.2,1.8,8.9,2.1,13.2,1c1.5-0.4,3.2,0.3,3.8,1.9l2.1,4.5
		l-3.9,3.1c-1.2,1-3.1,0.9-4.2-0.2c-3.4-3.1-7.7-4.9-12.1-5.4l-29.3-2.3l-0.7,8.8l10.6,0.9c-0.1,0.1-0.1,0.2-0.2,0.2
		c-1,1.5-1,3.5,0.1,5l7.2,9.6c2.7,3.6,6.6,6.2,10.9,7.4c1.5,0.4,2.5,1.9,2.4,3.5l-0.4,4.9l-4.9,0.7c-1.5,0.2-3.1-0.8-3.5-2.3
		c-1.3-4.4-4.2-8.1-7.9-10.7l-9.8-6.8c-1.5-1.1-3.5-1-5,0c-1.9,1.3-3.7,2.5-5.8,3.5c-1.6,0.9-2.6,2.6-2.4,4.4l1.3,11.9
		c0.5,4.5,2.5,8.8,5.8,11.9c1.1,1.1,1.3,3,0.3,4.2l-2.8,4l-4.6-1.9c-1.4-0.5-2.3-2.2-2-3.7c1-4.5,0.4-9.1-1.4-13.2l-5.1-10.7
		c-0.8-1.6-2.5-2.6-4.4-2.5c-0.5,0-1,0.1-1.5,0.1l3.1-9.7l-8.3-2.6l-8,25.6c-1.4,4.4-1.3,9,0.3,13.2c0.5,1.5-0.1,3.2-1.4,3.9
		l-4.3,2.4l-3.4-3.6c-1.1-1.2-1.2-3-0.2-4.2c2.7-3.6,4.2-8.1,4.2-12.6l-0.3-36l-8.8,0.1l0.1,16.1c-0.5-0.3-1.1-0.8-1.6-1.2
		c-1.5-1.1-3.6-1.1-5.1,0l-9.1,6.7c-3.6,2.7-6.2,6.6-7.4,10.9c-0.4,1.5-1.9,2.5-3.5,2.4l-4.9-0.4l-0.7-4.9c-0.2-1.5,0.8-3.1,2.3-3.6
		c4.4-1.3,8.1-4.2,10.7-7.9l6.8-9.8c1-1.4,1-3.4,0.1-4.9c-0.3-0.4-0.7-1-0.9-1.4l10.4-0.3l-0.3-8.8l-31.2,1c-4.6,0.1-9,1.8-12.5,4.6
		c-1.2,1-3.1,1-4.2-0.1l-3.7-3.3l2.3-4.4c0.8-1.4,2.4-2.1,3.9-1.5c4.4,1.4,9,1.3,13.2-0.2l26-9.4l-3-8.2l-7.1,2.5
		c-0.2-1.5-1.2-2.7-2.6-3.3l-14.1-5.9c-4.2-1.8-8.9-2.1-13.2-1c-1.5,0.4-3.2-0.3-3.8-1.9l-2.1-4.5L105.8,147.8z"/>
	<path d="M608.2,492.2l-3-7.9c-2-5.5-7.8-8.8-13.5-7.7c-2.5,0.4-5.1,0.1-7.5-1.1l-8.6-4.5c0-1.6-0.1-3.3-0.3-4.9l7.2-3.6
		c2.3-1.2,4.9-1.5,7.5-1.1c5.8,1.1,11.5-2.1,13.6-7.5l3-7.9c0.8-1.9,0-4-1.6-5.1l-6.9-4.7c-4.8-3.3-11.4-2.6-15.4,1.6
		c-1.8,1.9-4.2,3.1-6.8,3.5l-9.1,1.3c-0.8-1.1-1.5-2.1-2.3-3.2l5.2-9.7c1.2-2.3,3.2-4.2,5.5-5.2c5.4-2.4,8.1-8.3,6.7-14l-2.2-8.1
		c-0.5-2-2.3-3.3-4.4-3.3l-8.4,0.2c-5.9,0.1-10.7,4.5-11.6,10.3c-0.3,2.6-1.6,4.9-3.5,6.8l-7.3,7l0.7-11.7c0.1-2.6,1.2-5,2.8-7
		c3.8-4.4,3.9-10.9,0.2-15.5l-5.2-6.5c-1.3-1.5-3.5-2.1-5.2-1.2l-7.5,3.6c-5.2,2.5-8,8.5-6.3,14.2c0.8,2.5,0.5,5.1-0.3,7.5
		l-4.3,10.6l-5.1-10.2c-1.2-2.3-1.5-4.9-1.1-7.5c1.1-5.8-2.1-11.5-7.5-13.6l-7.9-3c-1.9-0.8-4,0-5.1,1.6l-4.7,6.9
		c-3.3,4.8-2.6,11.4,1.6,15.4c1.9,1.9,3.1,4.2,3.5,6.8l1.8,11.6l-9.7-6.6c-2.2-1.4-3.8-3.5-4.7-6c-1.9-5.6-7.5-8.9-13.3-8l-8.3,1.3
		c-2,0.3-3.5,2-3.6,4l-0.5,8.3c-0.4,5.8,3.4,11.2,9.1,12.6c2.5,0.7,4.8,2.1,6.5,4.2l7.3,9.1l-10.2-1.5c-2.5-0.4-4.9-1.6-6.7-3.5
		c-4-4.3-10.5-5-15.4-1.8l-7,4.7c-1.6,1.1-2.4,3.3-1.6,5.1l3,7.9c2.1,5.5,7.8,8.8,13.5,7.7c2.6-0.4,5.2-0.1,7.5,1.1l10,4.9
		c-0.1,1.3-0.1,2.5-0.1,3.8l-8.2,4.2c-2.3,1.2-4.9,1.5-7.5,1.1c-5.8-1.1-11.5,2.1-13.6,7.5l-3,7.9c-0.8,1.9,0,4,1.6,5.1l6.9,4.7
		c4.8,3.3,11.4,2.6,15.4-1.6c1.8-1.9,4.2-3.1,6.7-3.5l8-1.1c0.8,1.4,1.6,2.8,2.6,4.2l-4.5,8.5c-1.2,2.3-3.2,4.2-5.5,5.2
		c-5.4,2.4-8.1,8.3-6.7,14l2.2,8.1c0.5,2,2.3,3.3,4.3,3.3h0.1l8.4-0.2c5.9-0.1,10.7-4.5,11.6-10.3c0.3-2.6,1.6-4.9,3.5-6.8l5.2-5.1
		c0.5,0.3,1.2,0.7,1.8,1l-0.4,8.9c-0.1,2.6-1.2,5-2.8,7c-3.8,4.4-3.9,10.9-0.2,15.5l5.2,6.5c1.3,1.5,3.5,2.1,5.2,1.2l7.5-3.6
		c5.2-2.5,8-8.5,6.3-14.2c-0.8-2.5-0.5-5.1,0.3-7.5l3.4-8.4c0.7,0,1.3,0,1.9-0.1l4.2,8c1.2,2.3,1.5,4.9,1.1,7.5
		c-1.1,5.8,2.1,11.5,7.5,13.6l7.9,3c1.9,0.8,4,0,5.1-1.6l4.7-6.9c3.3-4.8,2.6-11.4-1.6-15.4c-1.9-1.8-3.1-4.2-3.5-6.8l-1.3-9
		c0.5-0.3,1.1-0.7,1.6-1.1l7.5,4.9c2.2,1.4,3.8,3.5,4.7,6c1.6,4.8,6.2,8.1,11.4,8.1c0.7,0,1.3,0,2-0.1l8.3-1.3c2-0.3,3.5-2,3.6-4
		l0.5-8.3c0.4-5.8-3.4-11.2-9.1-12.6c-2.5-0.7-4.8-2.1-6.3-4l-5.6-7c0.3-0.5,0.7-1.2,1-1.8l7.3,1.1c2.5,0.4,4.9,1.6,6.7,3.5
		c4,4.3,10.5,5,15.4,1.8l7-4.7C608.2,496.2,609,494.1,608.2,492.2L608.2,492.2z M594.8,494.8c-1.3,0.9-3.1,0.7-4.2-0.4
		c-3.2-3.3-7.2-5.5-11.7-6.1l-10.6-1.6c-2-0.3-3.9,0.8-4.7,2.6c-0.1,0.2-0.2,0.4-0.3,0.8l-3.3-4.2l-6.9,5.5L568,510
		c2.8,3.6,6.8,6.1,11.2,7.1c1.5,0.3,2.6,1.9,2.5,3.4l-0.3,4.9l-4.8,0.8c-1.5,0.2-3.1-0.7-3.6-2.2c-1.5-4.3-4.4-8-8.2-10.5l-24.6-16
		l-4.8,7.3l8.9,5.8c-0.1,0-0.2,0.1-0.3,0.1c-1.6,0.9-2.5,2.6-2.3,4.5l1.8,11.9c0.7,4.5,2.8,8.6,6.1,11.8c1.2,1.1,1.3,2.8,0.4,4.2
		l-2.7,4l-4.6-1.8c-1.5-0.5-2.4-2.1-2.1-3.7c0.9-4.5,0.2-9.1-1.9-13.1l-5.5-10.7c-0.9-1.6-2.6-2.6-4.5-2.3c-2.2,0.3-4.5,0.4-6.8,0.3
		h-0.1c-1.8,0-3.4,1.1-4,2.7l-4.5,11.2c-1.6,4.3-1.9,8.9-0.7,13.2c0.4,1.5-0.3,3.2-1.8,3.8l-4.5,2.2l-3.2-3.8c-1-1.2-1-3.1,0.1-4.2
		c3-3.4,4.7-7.8,5-12.2l0.7-11.9c0.1-1.9-1-3.6-2.7-4.3c-0.4-0.2-0.9-0.4-1.4-0.7l7.2-7.1l-6.1-6.2l-19.1,18.7
		c-3.3,3.2-5.4,7.3-6,11.8c-0.2,1.5-1.5,2.7-3.2,2.8l-4.9,0.1l-1.3-4.8c-0.4-1.5,0.3-3.2,1.8-3.8c4.2-1.9,7.5-5.1,9.6-9.1l16.8-31.7
		l-7.8-4.2l-7.5,14.2c-0.3-0.7-0.7-1.2-1-1.9c-0.8-1.8-2.6-2.7-4.6-2.5l-11.2,1.5c-4.5,0.7-8.6,2.8-11.8,6.1
		c-1.1,1.2-2.8,1.3-4.2,0.4l-4-2.7l1.8-4.6c0.5-1.5,2.1-2.4,3.7-2.1c4.5,0.9,9.1,0.2,13.1-1.9l10.7-5.5c1.5-0.8,2.5-2.5,2.4-4.3
		c0-0.5-0.1-1.1-0.1-1.8l9.3,4.7l3.9-7.9l-27.9-14c-4-2.1-8.6-2.7-13.1-1.9c-1.5,0.3-3.1-0.5-3.7-2.1l-1.3-4.4l4-2.7
		c1.3-0.9,3.1-0.7,4.2,0.4c3.2,3.3,7.2,5.5,11.8,6.1l27.3,4.2l1.3-8.6l-7.4-1.1c0.5-1.4,0.2-3-0.8-4.2l-9.6-11.9
		c-2.8-3.6-6.8-6.1-11.2-7.1c-1.5-0.3-2.6-1.9-2.5-3.4l0.3-4.9l4.8-0.8c1.5-0.2,3.1,0.7,3.6,2.2c1.4,4.3,4.4,8,8.1,10.4l13.5,9.1
		c0.8,0.5,1.8,0.8,2.7,0.8l2,12.7l8.6-1.3l-5.4-34.8c-0.7-4.5-2.8-8.6-6.1-11.8c-1.2-1.1-1.3-2.8-0.4-4.2l2.7-4l4.6,1.8
		c1.5,0.5,2.4,2.1,2.1,3.7c-0.9,4.5-0.2,9.1,1.9,13.1l13.9,27.7l7.8-3.9l-3.9-7.9c0.7-0.4,1.1-1.1,1.4-1.9l6.1-15.2
		c1.6-4.3,1.9-8.9,0.7-13.2c-0.4-1.5,0.3-3.2,1.8-3.8l4.5-2.2l3.2,3.8c1,1.2,1,3.1-0.1,4.3c-3,3.4-4.7,7.8-5,12.2l-0.9,15.3
		c-0.1,1.4,0.5,2.8,1.8,3.7l-12,11.6l6.1,6.3L558,423c3.3-3.2,5.4-7.3,6-11.8c0.2-1.5,1.5-2.7,3.2-2.8l4.9-0.1l1.3,4.8
		c0.4,1.5-0.3,3.2-1.8,3.8c-4.2,1.9-7.4,5-9.6,9.1l-16.6,30.6l7.7,4.2l6.7-12.4c0.3,0.5,0.7,1.1,1,1.5c0.9,1.5,2.6,2.4,4.4,2.1
		l11.9-1.8c4.5-0.7,8.6-2.8,11.8-6.1c1.1-1.2,2.8-1.3,4.2-0.4l4,2.7l-1.8,4.6c-0.5,1.5-2.1,2.4-3.7,2.1c-4.5-0.9-9.1-0.2-13.1,1.9
		l-10,4.9c-1.8,0.9-2.7,2.7-2.4,4.7c0.5,3.1,0.8,6.1,0.7,9.2c-0.1,1.6,0.9,3.3,2.4,4l11,5.7c4,2.1,8.6,2.7,13.1,1.9
		c1.5-0.3,3.1,0.5,3.7,2.1l1.8,4.6L594.8,494.8z"/>
	<path d="M263.3,472.9c-2.4-5.4-8.3-8.2-14-6.7c-2.5,0.7-5.1,0.4-7.5-0.5l-8.2-3.5v-2l7-2.5c2.4-0.9,5.1-0.9,7.5-0.1
		c5.6,1.9,11.7-0.7,14.3-5.8l3.9-7.4c1-1.8,0.5-4-1-5.4l-6.3-5.5c-4.4-3.8-10.9-4-15.5-0.3c-2,1.6-4.5,2.5-7.1,2.6l-9.7,0.2
		c-0.8-1.4-1.6-2.8-2.6-4.2l4.6-6.6c1.5-2.2,3.6-3.7,6.1-4.5c5.6-1.8,9.1-7.3,8.3-13.1l-1.1-8.3c-0.2-2-1.9-3.6-3.9-3.7l-8.3-0.9
		c-5.8-0.5-11.3,3.2-12.8,8.8c-0.7,2.5-2.2,4.7-4.3,6.2l-7.3,5.5c-1.1-0.7-2.3-1.2-3.5-1.6v-11.2c0-2.6,0.8-5.1,2.4-7.2
		c3.5-4.7,3.2-11.3-0.9-15.5l-5.8-6.1c-1.4-1.4-3.6-1.8-5.4-0.8L185,377c-5.1,3-7.3,9.1-5.2,14.5c0.9,2.4,1,5.1,0.2,7.5l-3.1,9.6
		l-5-10.6c-1.1-2.3-1.4-5-0.9-7.5c1.3-5.7-1.8-11.5-7.2-13.8l-7.8-3.2c-1.9-0.8-4-0.1-5.2,1.5l-4.9,6.8c-3.4,4.7-3,11.3,1.2,15.4
		c1.9,1.9,3,4.3,3.3,6.8l1.3,11.4l-9.4-6.6c-2.1-1.5-3.7-3.6-4.5-6.1c-1.8-5.6-7.3-9.1-13.1-8.3l-8.3,1.1c-2,0.2-3.6,1.9-3.7,3.9
		l-0.9,8.3c-0.5,5.8,3.2,11.3,8.8,12.8c2.5,0.7,4.7,2.2,6.3,4.3l7.1,9.3l-11.7-1.1c-2.6-0.2-5-1.3-7-3.1c-4.3-3.9-10.8-4.3-15.5-0.7
		l-6.7,5.1c-1.6,1.2-2.2,3.4-1.3,5.2l3.5,7.7c2.4,5.4,8.3,8.2,14,6.7c2.5-0.7,5.2-0.4,7.7,0.5l10.8,4.5l-9.6,3.5
		c-2.4,0.9-5.1,0.9-7.5,0.1c-5.6-1.9-11.7,0.7-14.3,5.8l-3.9,7.4c-1,1.8-0.5,4,1,5.4l6.3,5.6c4.4,3.8,10.9,4,15.5,0.3
		c2.1-1.6,4.6-2.5,7.2-2.6l11-0.3c0.5,1.1,1.1,2.3,1.8,3.4l-5.2,7.5c-1.5,2.2-3.6,3.7-6.1,4.5c-5.6,1.8-9.1,7.3-8.3,13.1l1.1,8.3
		c0.3,2,1.9,3.6,3.9,3.7l8.3,0.9c5.8,0.5,11.3-3.2,12.8-8.8c0.7-2.5,2.2-4.7,4.3-6.2l6.5-4.8c1.4,0.9,2.8,1.8,4.3,2.4l0.1,9.6
		c0,2.6-0.8,5.1-2.4,7.2c-3.5,4.7-3.2,11.3,0.9,15.5l5.8,6.1c1.4,1.4,3.6,1.8,5.4,0.8l7.2-4.2c5.1-3,7.3-9.1,5.2-14.5
		c-0.9-2.4-1-5.1-0.1-7.7l2.2-7.1h2l3.8,8.1c1.1,2.4,1.4,5,0.9,7.5c-1.3,5.7,1.8,11.5,7.2,13.8l7.8,3.2c1.9,0.8,4,0.1,5.2-1.5
		l4.9-6.8c3.4-4.7,3-11.3-1.2-15.4c-1.9-1.9-3-4.3-3.3-6.8l-1-9l1.6-1l7.4,5.1c2.2,1.5,3.7,3.6,4.5,6.1c1.8,5.6,7.3,9.1,13.1,8.3
		l8.3-1.1c2-0.2,3.6-1.9,3.7-3.9l0.9-8.3c0.5-5.8-3.2-11.3-8.8-12.8c-2.5-0.7-4.7-2.2-6.2-4.3l-5.4-7.2c0.3-0.5,0.7-1.1,1-1.8l9,0.8
		c2.6,0.2,5,1.3,7,3.1c4.3,3.9,10.8,4.3,15.5,0.7l6.7-5.1c1.6-1.2,2.2-3.4,1.3-5.2L263.3,472.9z M253.4,484.1
		c-1.2,1-3.1,0.9-4.2-0.2c-3.4-3.1-7.7-4.9-12.1-5.4l-29.3-2.3l-0.7,8.8l10.6,0.9c-0.1,0.1-0.1,0.2-0.2,0.2c-1,1.5-1,3.5,0.1,5
		l7.1,9.6c2.7,3.6,6.6,6.2,10.9,7.4c1.5,0.4,2.5,1.9,2.4,3.5l-0.4,4.9l-4.9,0.7c-1.5,0.2-3.1-0.8-3.6-2.3c-1.4-4.4-4.2-8.1-7.9-10.7
		l-9.8-6.8c-1.5-1.1-3.5-1-5,0c-1.9,1.3-3.7,2.5-5.8,3.5c-1.6,0.9-2.6,2.6-2.4,4.4l1.3,11.9c0.5,4.5,2.5,8.8,5.8,11.9
		c1.1,1.1,1.3,3,0.3,4.2l-2.8,4l-4.6-1.9c-1.4-0.5-2.3-2.2-2-3.7c1-4.5,0.4-9.1-1.4-13.2l-5.1-10.7c-0.8-1.6-2.5-2.6-4.4-2.5
		c-0.5,0-1,0.1-1.5,0.1l3.1-9.7l-8.3-2.6l-7.9,25.8c-1.4,4.4-1.3,9,0.3,13.2c0.5,1.5-0.1,3.2-1.4,3.9l-4.3,2.4l-3.4-3.6
		c-1.1-1.2-1.2-3-0.2-4.2c2.7-3.6,4.2-8.1,4.2-12.6l-0.3-36l-8.8,0.1l0.1,16.1c-0.5-0.3-1.1-0.8-1.6-1.2c-1.5-1.1-3.6-1.1-5.1,0
		l-9,6.7c-3.6,2.7-6.2,6.6-7.4,10.9c-0.4,1.5-1.9,2.5-3.5,2.4l-4.9-0.4l-0.7-4.9c-0.2-1.5,0.8-3.1,2.3-3.6c4.4-1.3,8.1-4.2,10.7-7.9
		l6.8-9.8c1-1.4,1-3.4,0.1-4.8c-0.3-0.4-0.7-1-0.9-1.4l10.4-0.3l-0.3-8.8l-31.2,1c-4.6,0.1-9,1.8-12.5,4.6c-1.2,1-3.1,1-4.2-0.1
		l-3.7-3.3l2.3-4.4c0.8-1.4,2.4-2.1,3.9-1.5c4.4,1.4,9,1.3,13.2-0.2l26-9.4l-3.3-8.1l-7.1,2.5c-0.2-1.5-1.2-2.7-2.6-3.3l-14.1-5.9
		c-4.2-1.8-8.9-2.1-13.2-1c-1.5,0.4-3.2-0.3-3.8-1.9l-2.1-4.5l3.9-3.1c1.2-1,3.1-0.9,4.2,0.2c3.3,3.1,7.5,4.9,12,5.4l16.1,1.5
		c1,0.1,2-0.1,2.7-0.7l7.8,10.2l7-5.2l-21.2-28c-2.7-3.6-6.6-6.2-10.9-7.4c-1.5-0.4-2.5-1.9-2.4-3.5l0.4-4.9l4.9-0.7
		c1.5-0.2,3.1,0.8,3.5,2.3c1.3,4.4,4.2,8.1,7.9,10.7l25.7,17.7l5-7.2l-7.2-5c0.3-0.8,0.4-1.5,0.3-2.3l-1.9-16.2
		c-0.5-4.5-2.5-8.8-5.8-11.9c-1.1-1.1-1.3-3-0.3-4.2l2.8-4l4.6,1.9c1.4,0.5,2.3,2.2,2,3.7c-1,4.5-0.4,9.1,1.4,13.2l6.6,13.9
		c0.7,1.3,1.9,2.3,3.4,2.4l-5,16l8.3,2.6l11-35.1c1.4-4.4,1.3-9-0.3-13.2c-0.5-1.5,0.1-3.2,1.4-3.9l4.3-2.4l3.4,3.6
		c1.1,1.2,1.2,3,0.2,4.2c-2.7,3.6-4.2,8-4.2,12.6v34.9h8.8v-14.1c0.5,0.3,1.1,0.5,1.6,0.9c1.5,0.9,3.5,0.8,4.9-0.2l9.6-7.2
		c3.6-2.7,6.2-6.6,7.4-10.9c0.4-1.5,1.9-2.5,3.5-2.4l4.9,0.4l0.7,4.9c0.2,1.5-0.8,3.1-2.3,3.6c-4.4,1.3-8.1,4.2-10.7,7.9l-6.5,9.1
		c-1.1,1.6-1.1,3.7,0.1,5.2c1.9,2.4,3.6,5,4.9,7.8c0.8,1.5,2.3,2.4,3.9,2.4h0.1l12.4-0.2c4.6-0.1,9-1.8,12.5-4.6
		c1.2-1,3.1-1,4.3,0.1l3.7,3.3l-2.3,4.4c-0.8,1.4-2.4,2.1-3.9,1.5c-4.3-1.4-9-1.3-13.2,0.2l-10.1,3.6c-1.9,0.7-3.1,2.5-2.8,4.6
		c0,0.2,0,0.5,0.1,0.8l-4.9-2.1l-3.4,8.1l22,9.4c4.2,1.8,8.9,2.1,13.2,1c1.5-0.4,3.2,0.3,3.8,1.9l2.1,4.5L253.4,484.1z"/>
	<path d="M442.8,136.4c0.7,5.8,5.5,10.3,11.4,10.5c2.6,0.1,5.1,1.1,7.1,2.8l9,7.5l-10.3,0.4c-2.6,0.1-5.1-0.7-7.2-2.2
		c-4.8-3.4-11.3-2.8-15.4,1.2l-5.9,5.9c-1.4,1.4-1.8,3.6-0.7,5.4l4.4,7.1c3.1,5,9.3,7.1,14.7,4.9c2.4-1,5.1-1.1,7.7-0.3l10.7,3
		c0.2,1.3,0.4,2.5,0.7,3.7l-7.2,5.7c-2.1,1.6-4.6,2.4-7.2,2.5c-5.9,0-10.8,4.3-11.8,10l-1.4,8.3c-0.3,2,0.8,3.9,2.6,4.7l7.7,3.3
		c5.4,2.3,11.7,0.3,14.8-4.6c1.4-2.2,3.5-3.8,5.9-4.7l7.7-2.6c1.1,1.2,2.2,2.4,3.4,3.6l-2.8,9.3c-0.8,2.5-2.3,4.7-4.4,6.1
		c-4.8,3.4-6.3,9.7-3.8,15l3.6,7.5c0.9,1.9,3,2.8,4.9,2.4l8.2-1.9c5.7-1.2,9.7-6.5,9.4-12.4c-0.1-2.6,0.7-5.1,2.1-7.3l4.2-6.1
		c0.7,0.2,1.3,0.4,2,0.5l1.2,8.9c0.3,2.6-0.1,5.1-1.4,7.4c-3,5-1.8,11.5,2.7,15.3l6.5,5.4c1.5,1.3,3.8,1.3,5.5,0.1l6.7-5
		c4.7-3.5,6.1-10,3.5-15.1c-1.2-2.3-1.5-4.9-1.1-7.4l1.8-8.9c0.7-0.1,1.2-0.3,1.9-0.4l5.6,7.1c1.6,2.1,2.4,4.6,2.5,7.2
		c0,5.9,4.3,10.8,10,11.8l8.2,1.4c2,0.3,3.9-0.8,4.7-2.6l3.3-7.7c2.3-5.4,0.3-11.7-4.6-14.8c-2.2-1.4-3.8-3.5-4.7-5.9l-3-8.5
		c0.4-0.4,1-0.9,1.4-1.3l8.3,3.4c2.4,1,4.4,2.7,5.7,5c3,5,9.1,7.3,14.5,5.2l7.9-3c1.9-0.7,3.1-2.6,2.8-4.6l-1-8.3
		c-0.7-5.8-5.5-10.3-11.4-10.5c-2.6-0.1-5-1.1-7.1-2.8l-6.8-5.8c0.2-0.7,0.4-1.3,0.5-2l7.4-0.3c2.6-0.1,5.1,0.7,7.2,2.2
		c4.8,3.4,11.3,2.8,15.4-1.2l5.9-5.9c1.4-1.4,1.8-3.6,0.7-5.4l-4.4-7.1c-3.1-5-9.3-7.1-14.7-4.9c-2.4,1-5,1.1-7.5,0.3l-9.3-2.7
		c-0.3-1.6-0.8-3.2-1.3-4.8l6.3-4.9c2.1-1.6,4.6-2.4,7.2-2.5c5.9,0,10.8-4.3,11.8-10l1.4-8.3c0.3-2-0.8-3.9-2.6-4.7l-7.7-3.3
		c-5.4-2.3-11.7-0.3-14.8,4.6c-1.4,2.2-3.5,3.8-5.9,4.7l-8.6,3.1c-0.9-0.9-1.9-1.8-2.8-2.6l3.3-10.6c0.8-2.5,2.3-4.7,4.4-6.1
		c4.8-3.4,6.3-9.7,3.8-15l-3.6-7.5c-0.9-1.9-3-2.8-4.9-2.4l-8.2,1.9c-5.7,1.2-9.7,6.5-9.4,12.4c0.1,2.6-0.7,5.1-2.1,7.3l-5.8,8.3
		l-1.6-11.6c-0.3-2.6,0.1-5.1,1.4-7.4c3-5,1.8-11.5-2.7-15.3l-6.5-5.4c-1.5-1.3-3.8-1.3-5.5-0.1l-6.7,5c-4.7,3.5-6.1,10-3.5,15.1
		c1.2,2.3,1.5,4.9,1.1,7.5l-2.2,11.3l-7-9c-1.6-2.1-2.4-4.6-2.5-7.2c0-5.9-4.3-10.8-10-11.8l-8.3-1.4c-2-0.3-3.9,0.8-4.7,2.6
		l-3.3,7.7c-2.3,5.4-0.3,11.7,4.6,14.8c2.2,1.4,3.8,3.5,4.7,6l4.3,10.8l-10.8-4.6c-2.4-1-4.4-2.7-5.7-5c-3-5-9.1-7.3-14.5-5.2
		l-7.9,3c-1.9,0.7-3.1,2.6-2.8,4.6L442.8,136.4z M455.4,128.7c1.5-0.5,3.2,0,3.9,1.4c2.3,3.9,5.8,7,10,8.6l14.9,6.3
		c0.9,0.3,1.9,0.4,2.8,0.2l4.4,12l8.2-3l-11.9-33c-1.5-4.3-4.4-8-8.2-10.4c-1.3-0.9-1.9-2.5-1.2-4l2-4.5l4.8,0.9
		c1.5,0.2,2.7,1.6,2.7,3.2c0,4.6,1.5,9,4.3,12.6l19,24.5l6.9-5.4l-5.4-7c0.5-0.5,0.9-1.3,1.1-2.1l3.1-16.1c0.9-4.5,0.1-9.1-2-13.1
		c-0.8-1.4-0.3-3.2,1-4.2l3.9-3l3.8,3.2c1.2,1,1.5,2.7,0.8,4.2c-2.3,3.9-3.2,8.5-2.5,13l2.1,15.2c0.2,1.4,1.1,2.7,2.5,3.4l-9.6,13.8
		l7.2,5l21.1-30.2c2.6-3.7,3.9-8.2,3.7-12.8c-0.1-1.6,1-3,2.5-3.4l4.8-1.1l2.2,4.4c0.7,1.4,0.2,3.2-1,4c-3.7,2.6-6.3,6.5-7.7,10.7
		l-10.4,33.2l8.3,2.6l4.3-13.5l1.3,1.3c1.2,1.3,3.1,1.9,4.7,1.2l11.3-3.9c4.3-1.5,8-4.4,10.4-8.2c0.9-1.3,2.5-1.9,4-1.2l4.5,2
		l-0.9,4.8c-0.2,1.5-1.6,2.7-3.2,2.7c-4.5,0-9,1.5-12.5,4.3l-8.9,6.8c-1.5,1.2-2.1,3.3-1.4,5c1.1,2.8,1.9,5.8,2.4,8.9
		c0.2,1.6,1.4,3.1,3.1,3.5l11.9,3.5c4.4,1.3,9.1,1,13.2-0.7c1.5-0.5,3.2,0,4,1.3l2.5,4.2l-3.5,3.5c-1.1,1.1-3,1.3-4.2,0.3
		c-3.7-2.6-8.2-3.9-12.7-3.8l-10.7,0.4c-2,0.1-3.7,1.5-4.2,3.5c-0.1,0.2-0.1,0.5-0.2,0.8l-4-3.4l-5.7,6.7l18.2,15.5
		c3.5,3,7.8,4.7,12.4,4.9c1.6,0.1,2.8,1.3,3.1,2.8l0.5,4.9l-4.6,1.8c-1.5,0.5-3.2,0-3.9-1.4c-2.3-3.9-5.8-7-10.1-8.8L541.6,197
		l-3.3,8.1l9.8,3.9l-0.2,0.2c-1.4,1.2-2,3.1-1.4,4.8l3.9,11.4c1.5,4.3,4.4,8,8.2,10.4c1.3,0.9,1.9,2.5,1.2,4l-2,4.5l-4.8-0.9
		c-1.5-0.2-2.7-1.6-2.7-3.2c0-4.6-1.5-9-4.3-12.6l-7.4-9.4c-1.1-1.4-3.1-2.1-4.8-1.4c-2.2,0.7-4.4,1.2-6.6,1.6
		c-1.9,0.3-3.3,1.6-3.6,3.5l-2.3,11.8c-0.9,4.5-0.1,9.1,2,13.1c0.8,1.4,0.3,3.2-1,4.2l-3.9,3l-3.8-3.2c-1.2-1-1.5-2.7-0.8-4.2
		c2.3-3.9,3.2-8.5,2.5-13l-1.6-11.8c-0.2-1.9-1.6-3.3-3.5-3.7c-0.5-0.1-1-0.2-1.4-0.3l5.8-8.3l-7.2-4.9l-15.2,22
		c-2.6,3.7-3.9,8.2-3.7,12.8c0.1,1.6-1,3.1-2.5,3.4l-4.8,1.1l-2.2-4.4c-0.7-1.4-0.2-3.2,1-4c3.7-2.6,6.3-6.5,7.7-10.8l10.5-34.3
		l-8.4-2.5l-4.7,15.4l-1.3-1.6c-1.1-1.5-3.2-2.2-4.9-1.5l-10.6,3.7c-4.3,1.5-8,4.4-10.4,8.2c-0.9,1.3-2.5,1.9-4,1.2l-4.5-2l0.9-4.8
		c0.2-1.5,1.6-2.7,3.2-2.7c4.6,0,9-1.5,12.6-4.3l9.5-7.4c1.4-1.1,2-3,1.5-4.6c-0.1-0.5-0.3-1.1-0.4-1.6l10.1,2.7l2.3-8.4l-30.1-8.3
		c-4.4-1.2-9.1-1-13.2,0.7c-1.5,0.5-3.2,0-4-1.3l-2.5-4.2l3.5-3.5c1.1-1.1,3-1.3,4.2-0.3c3.7,2.6,8.2,3.9,12.7,3.8l27.7-1.2
		l-0.4-8.8l-7.5,0.3c0.2-1.5-0.3-3-1.5-3.9l-11.7-9.8c-3.5-3-7.8-4.7-12.4-4.9c-1.6-0.1-2.8-1.3-3.1-2.8l-0.5-4.9L455.4,128.7z"/>
	<path d="M324.2,571.5l-1,8.8c17.7,2,35.7,2,53.5,0l-1-8.8C358.7,573.3,341.4,573.3,324.2,571.5L324.2,571.5z"/>
	<path d="M435.9,556.5l3.3,8.1c9.2-3.6,18-7.9,26.7-12.7l-4.3-7.7C453.4,548.8,444.7,553,435.9,556.5L435.9,556.5z"/>
	<path d="M584.6,394.5c10.1-44.4,7.3-90.8-7.8-133.7l-8.2,3c14.5,41.3,17.2,86.1,7.4,128.8L584.6,394.5z"/>
	<path d="M439.1,117.4c-12.2-4.8-24.7-8.8-37.6-11.5l-1.9,8.5c12.4,2.7,24.5,6.5,36.2,11L439.1,117.4z"/>
	<path d="M301.7,114.2l-1.9-8.5c-17.7,3.7-34.9,9.5-51.3,17.2l3.7,8C268.1,123.3,284.6,117.8,301.7,114.2L301.7,114.2z"/>
	<path d="M129.3,245c-13.2,30.3-20,63-19.9,96c0,15.9,1.5,31.6,4.6,47.1l8.5-1.8c-2.8-14.9-4.4-30.2-4.4-45.4
		c-0.1-31.8,6.5-63.3,19.2-92.5L129.3,245z"/>
	<path d="M221.5,544.4c12.5,7.9,25.7,14.7,39.4,20.1l3.3-8.1c-13.2-5.2-25.9-11.8-38-19.4L221.5,544.4z"/>
	<path d="M164.4,163.8l4.2-7.7l13.6,7.4l-4.2,7.7L164.4,163.8z"/>
	<path d="M181,185.7l12.4-6.7l4.1,7.7l-12.4,6.7L181,185.7z"/>
	<path d="M498.3,161.1l15-4.3l2.4,8.4l-15,4.3L498.3,161.1z"/>
	<path d="M521.6,182.9l13.2-9.5l5.1,7.1l-13.2,9.5L521.6,182.9z"/>
	<path d="M502.8,469.1l2.6-8.4l13.8,4.3l-2.6,8.4L502.8,469.1z"/>
	<path d="M527.2,482.8l14.5-5.2l3,8.2l-14.5,5.2L527.2,482.8z"/>
	<path d="M176.1,451.1l5.1-7.1l12.6,9l-5.1,7.1L176.1,451.1z"/>
	<path d="M153.7,463.7l5.7-6.6l10.6,9.1l-5.7,6.6L153.7,463.7z"/>
	<path d="M179.7,474h17.1v8.8h-17.1V474z"/>
</g>
</svg>
