<?xml version="1.0" encoding="utf-8"?>
<!-- Generator: Adobe Illustrator 26.0.0, SVG Export Plug-In . SVG Version: 6.00 Build 0)  -->
<svg version="1.1" id="Camada_1" xmlns="http://www.w3.org/2000/svg" xmlns:xlink="http://www.w3.org/1999/xlink" x="0px" y="0px"
	 viewBox="0 0 700 700" style="enable-background:new 0 0 700 700;" xml:space="preserve">
<path d="M627.2,165.9L351.7,55.4c-1.1-0.4-2.2-0.4-3.3,0L72.8,165.9c-1.7,0.7-2.8,2.3-2.8,4.1c0,1.8,1.1,3.4,2.8,4.1L221.9,234
	c-1.2,13.1-3.6,25.9-6.9,38.3c-3.7,13.3-8.6,26.4-14.8,38.9c-0.2,0.3-0.3,0.6-0.3,1l0,0c-2.8,12-4.2,24.4-4.2,36.8
	c0,33.9,10.3,66.1,29.8,93.3l-36.2,37l-28-28.7c-5.5-5.6-12.8-8.8-20.7-8.8s-15.1,3.1-20.7,8.8c-11.3,11.6-11.3,30.4,0,42l28.1,28.8
	l-41.9,43c-11.3,11.6-11.3,30.4,0,42c5.5,5.6,12.8,8.8,20.7,8.8s15.1-3.1,20.7-8.8l41.8-42.8l28,28.7c5.5,5.6,12.8,8.8,20.7,8.8
	c7.8,0,15.1-3.1,20.7-8.8c11.3-11.6,11.3-30.4,0-42l-28.1-28.8l37.7-38.6c24.5,15.7,52.8,24,81.9,24c28.9,0,56.9-8.2,81.3-23.7
	l69.8,71.5h-15.1c-16.3,0-29.6,13.5-29.6,30.2s13.3,30.2,29.6,30.2h86.7c16.1,0,29.2-13.4,29.2-29.8v-88.8
	c0-16.6-13.3-30.2-29.6-30.2c-16.3,0-29.6,13.5-29.6,30.2v15.3l-68.1-69.8c19.4-27.2,29.7-59.3,29.7-93.2c0-12.4-1.4-24.8-4.2-36.8
	l0,0c-0.1-0.3-0.2-0.6-0.3-1c-6.2-12.5-11.1-25.6-14.8-38.9c-3.4-12.3-5.7-25.2-6.9-38.3l52.6-21.1c1.8,2.1,2.9,4.9,2.9,7.8v79.1
	c-7.3,4.3-12.2,11.9-12.2,20.7c0,5.9,2.2,11.3,6,15.6c-4.8,5.1-7.6,12-7.6,19.3v53.7c0,2.5,2,4.4,4.4,4.4h45.8c2.5,0,4.4-2,4.4-4.4
	v-53.7c0-7.2-2.8-14.1-7.6-19.3c3.7-4.2,6-9.6,6-15.6c0-8.7-4.9-16.4-12.2-20.7v-79.1c0-6.4-1.6-12.6-4.4-18.1l70.8-28.4
	c1.7-0.7,2.8-2.3,2.8-4.1C630,168.2,628.9,166.6,627.2,165.9L627.2,165.9z M495.5,348.9c0,33.2-10.4,64.6-30.2,90.9
	c-1.3,1.8-1.2,4.2,0.4,5.8l78.4,80.3c1.3,1.3,3.2,1.7,4.9,1c1.7-0.7,2.8-2.3,2.8-4.1v-26.2c0-11.7,9.3-21.3,20.7-21.3
	c11.4,0,20.7,9.6,20.7,21.3v88.8c0,11.5-9.1,20.9-20.3,20.9h-86.7c-11.4,0-20.7-9.6-20.7-21.3c0-11.7,9.3-21.3,20.7-21.3h25.6
	c1.8,0,3.4-1.1,4.1-2.7c0.7-1.6,0.3-3.6-0.9-4.8l-79.8-81.7c-1.5-1.5-3.9-1.8-5.7-0.6C405.8,489.6,378.3,498,350,498
	c-28.6,0-56.2-8.5-80-24.6c-1.8-1.2-4.2-1-5.7,0.6l-43.3,44.3c-1.7,1.7-1.7,4.5,0,6.2l31.2,31.9c8,8.2,8,21.4,0,29.6
	c-3.8,3.9-8.9,6.1-14.3,6.1c-5.4,0-10.5-2.2-14.3-6.1l-31.2-31.9c-0.8-0.9-2-1.3-3.2-1.3c-1.2,0-2.3,0.5-3.2,1.3l-45,46.1
	c-3.8,3.9-8.9,6.1-14.3,6.1c-5.4,0-10.5-2.2-14.3-6.1c-8-8.2-8-21.4,0-29.6l45-46.1c1.7-1.7,1.7-4.5,0-6.2l-31.2-31.9
	c-8-8.2-8-21.4,0-29.6c3.8-3.9,8.9-6.1,14.3-6.1s10.5,2.2,14.3,6.1l31.2,31.9c0.8,0.9,2,1.3,3.2,1.3c1.2,0,2.3-0.5,3.2-1.3l42-43
	c1.5-1.6,1.7-4,0.4-5.8c-19.8-26.3-30.3-57.8-30.3-91.1c0-9.1,0.8-18.2,2.4-27.1c5.9,5.2,16.1,13.4,30.4,21.8
	c-0.1,1.8-0.1,3.6-0.1,5.3c0,63.6,50.6,115.4,112.8,115.4s112.8-51.8,112.8-115.4c0-1.8-0.1-3.6-0.1-5.3
	c14.2-8.4,24.5-16.6,30.4-21.8C494.7,330.7,495.5,339.8,495.5,348.9L495.5,348.9z M246.1,348.9c0-0.1,0-0.3,0-0.4
	c23.5,12.5,59.2,25.9,103.9,25.9s80.4-13.4,103.9-25.9c0,0.1,0,0.3,0,0.4c0,58.7-46.6,106.5-104,106.5
	C292.7,455.4,246,407.7,246.1,348.9L246.1,348.9z M490.4,312.2c-10.8,10.1-61.7,53.3-140.4,53.3c-78.8,0-129.6-43.2-140.4-53.3
	c5.8-12.1,10.4-24.8,14-37.6c3.3-12,5.6-24.5,7-37.2l117.8,47.3c0.5,0.2,1.1,0.3,1.7,0.3s1.1-0.1,1.7-0.3l117.8-47.3
	c1.3,12.7,3.7,25.2,7,37.2C480,287.4,484.7,300,490.4,312.2L490.4,312.2z M527.9,200.9l-179.2-52.4c-1.2-0.3-2.2-1.2-2.8-2.3
	c-0.6-1.2-0.8-2.5-0.4-3.8c0.7-2.5,3.3-4.1,5.8-3.3l179.2,52.4c12.6,3.7,21.4,15.7,21.4,29.2v75.8c-1.5-0.3-3.1-0.4-4.7-0.4
	c-1.6,0-3.2,0.1-4.7,0.4v-75.8C542.5,211.5,536.5,203.4,527.9,200.9L527.9,200.9z M565.7,404.5h-16.7v-32c0-2.5-2-4.4-4.4-4.4
	c-2.5,0-4.4,2-4.4,4.4v32h-11.3v-49.3c0-5.2,2.1-10.2,5.7-13.7c3.8,2,8.1,3.2,12.8,3.2s9-1.2,12.8-3.2c3.6,3.6,5.7,8.5,5.7,13.7
	L565.7,404.5z M564,320.4c0,8.5-7.6,15.4-16.8,15.4c-9.3,0-16.8-6.9-16.8-15.4c0-8.5,7.6-15.4,16.8-15.4S564,311.9,564,320.4z
	 M551.4,195c-4.8-5.6-11.1-9.9-18.4-12.1l-179.2-52.4c-1.2-0.4-2.5-0.5-3.8-0.5c-6,0-11.4,4.1-13,10c-1,3.5-0.6,7.2,1.2,10.4
	c1.8,3.2,4.6,5.6,8.1,6.6l173.4,50.7l-169.6,68L86.4,170L350,64.3L613.6,170L551.4,195z"/>
</svg>
